<?xml version="1.0" standalone="no"?>
<!DOCTYPE svg PUBLIC "-//W3C//DTD SVG 1.1//EN" "http://www.w3.org/Graphics/SVG/1.1/DTD/svg11.dtd" >
<svg xmlns="http://www.w3.org/2000/svg">
<metadata></metadata>
<defs>
<font id="blackchanceryregular" horiz-adv-x="921" >
<font-face units-per-em="2048" ascent="1638" descent="-410" />
<missing-glyph horiz-adv-x="512" />
<glyph horiz-adv-x="2048" />
<glyph horiz-adv-x="2048" />
<glyph unicode="&#xd;" horiz-adv-x="2048" />
<glyph unicode=" "  horiz-adv-x="512" />
<glyph unicode="&#x09;" horiz-adv-x="512" />
<glyph unicode="&#xa0;" horiz-adv-x="512" />
<glyph unicode="!" horiz-adv-x="747" d="M119 -172q20 29 98 108.5t98 79.5q12 0 67.5 -51t113.5 -84q-12 -18 -92 -104t-105 -86q-14 0 -61.5 48t-118.5 89zM205 616q0 209 86 367t193.5 250t191.5 131q-66 -100 -125 -373.5t-98 -413t-170 -354.5q-39 104 -58.5 203.5t-19.5 189.5z" />
<glyph unicode="&#x22;" horiz-adv-x="661" d="M31 1309q25 14 55.5 20t52.5 6q43 0 68 -8t43 -18q-10 -49 -10 -119v-54.5t2 -54.5q0 -53 -7.5 -103t-25.5 -108q-18 74 -98 187.5t-80 251.5zM375 1309q25 14 55.5 20t52.5 6q43 0 68 -8t43 -18q-10 -49 -10 -119v-54.5t2 -54.5q0 -53 -7.5 -103t-25.5 -108 q-18 74 -98 187.5t-80 251.5z" />
<glyph unicode="#" horiz-adv-x="911" d="M102 606l50 66h106l88 176h-133l49 65h117l67 136h66l-68 -136h144l67 136h66l-68 -136h117l-49 -65h-100l-89 -176h127l-49 -66h-110l-62 -121h-65l61 121h-143l-62 -121h-65l61 121h-123zM324 672h143l88 176h-143z" />
<glyph unicode="$" horiz-adv-x="802" d="M29 166v205q84 -143 171 -223t201 -80q72 0 118 63.5t46 134.5q0 117 -133 207q-125 72 -250 145q-135 96 -135 224q0 170 97.5 239.5t199.5 69.5v158l82 4v-162q47 0 152.5 -34t105.5 -193q-43 72 -105.5 104.5t-164.5 32.5q-70 0 -126.5 -33t-56.5 -123 q0 -88 183.5 -189.5t259.5 -161.5t76 -224q0 -150 -91.5 -241t-232.5 -91v-168l-82 2v164q-76 0 -163 31.5t-152 138.5z" />
<glyph unicode="%" horiz-adv-x="1003" d="M61 31q0 12 13 28l684 983q12 16 12 29q0 25 -34 39t-81 33h115q63 0 103 -15.5t40 -46.5q0 -16 -14 -37l-663 -950q-12 -23 -13 -37q0 -25 26.5 -38t98.5 -42h-137q-61 0 -105.5 12.5t-44.5 41.5zM66 922q0 102 59 163.5t147 61.5q100 0 144.5 -70.5t44.5 -175.5 q0 -125 -59.5 -177t-145.5 -52q-102 0 -146 75.5t-44 174.5zM156 922q0 -68 25.5 -132.5t72.5 -64.5q53 0 86 42t33 132q0 76 -23.5 135.5t-75.5 59.5q-53 0 -85.5 -42t-32.5 -130zM553 223q0 119 64.5 172.5t142.5 53.5q90 0 139 -73t49 -175q0 -119 -63.5 -173.5 t-143.5 -54.5q-100 0 -144 76t-44 174zM645 225q0 -76 22.5 -137t73.5 -61t84 42t33 130q0 82 -23.5 140t-72.5 58q-51 0 -84 -42t-33 -130z" />
<glyph unicode="&#x26;" horiz-adv-x="1331" d="M53 137q0 158 82 294t197 251q-41 53 -82 125t-41 172q0 139 88 258t223 119q90 0 155.5 -72t65.5 -168q0 -90 -54 -166t-198 -213q86 -106 291 -317t291 -283q41 61 64.5 123t23.5 129q0 111 -79 216.5t-269 201.5q227 0 326.5 -112.5t99.5 -284.5q0 -88 -25.5 -177.5 t-64.5 -148.5q137 -127 212 -185.5t210 -105.5h-103q-174 0 -266 51q-82 53 -143 90q-63 -76 -184 -142t-316 -66q-242 0 -373 119.5t-131 291.5zM240 338q0 -217 116.5 -320.5t327.5 -103.5q88 0 161 23.5t126 80.5q-123 82 -298 257.5t-300 351.5q-43 -51 -88 -133 t-45 -156zM348 1081q0 -59 20.5 -135t86.5 -153q51 39 100 118.5t49 135.5q0 82 -27.5 127t-109.5 45q-51 0 -85 -29t-34 -109z" />
<glyph unicode="'" horiz-adv-x="256" d="M23 1309q25 14 55.5 20t52.5 6q43 0 68 -8t43 -18q-10 -49 -11 -119v-54.5t2 -54.5q0 -53 -7 -103t-25 -108q-18 74 -98 187.5t-80 251.5z" />
<glyph unicode="(" horiz-adv-x="471" d="M55 365q0 205 80 384t258 316q-72 -90 -111.5 -296t-39.5 -445q0 -227 35.5 -419t107.5 -290q-137 102 -233.5 312t-96.5 438z" />
<glyph unicode=")" horiz-adv-x="471" d="M80 -387q72 90 111.5 296t39.5 445q0 227 -35.5 419t-107.5 290q137 -102 233.5 -312t96.5 -438q0 -205 -80 -384t-258 -316z" />
<glyph unicode="*" horiz-adv-x="1173" d="M76 852q39 20 61.5 32.5t65.5 96.5q16 -41 33 -80q18 -23 88 -22q72 0 84 12q18 33 45 72q-29 31 -49.5 52t-38.5 21q-27 -2 -54 -2q0 76 -12 88.5t-86 12.5v90h86q0 -76 12.5 -88.5t89.5 -12.5q-2 -45 -2 -55q0 -16 19.5 -36.5t50.5 -53.5q39 25 78 51q10 10 10 78 q0 70 -20 86q-45 16 -84 35q45 20 90 41q6 25 37 86q20 -43 41 -86q25 -10 88 -41q-41 -16 -80 -33q-23 -16 -23 -86q0 -68 8 -78q33 -20 78 -53q47 47 57.5 58.5t10.5 23.5q-4 27 -4 59q76 0 88 14.5t12 90.5h90v-90q-72 0 -88 -14.5t-16 -90.5q-41 2 -51 2 q-16 0 -39 -25.5t-43 -43.5q16 -37 29.5 -60.5t47.5 -23.5h50q68 0 86 24q16 43 32 76q20 -45 43 -88q27 -8 88 -39q-43 -20 -86 -39q-12 -25 -45 -88q-16 37 -30 74q-18 27 -88 26q-76 0 -86 -10q-16 -33 -41 -74q25 -29 45 -49t41 -20q25 2 47 2q0 -70 15 -83t89 -13v-93 h-90q0 66 -15.5 83.5t-84.5 17.5v39q0 29 -8 41q-27 27 -56 59q-37 -23 -71 -43q-14 -12 -15 -47v-39q0 -66 23 -82q43 -18 80 -37q-45 -20 -91 -41q-8 -27 -38 -88q-45 92 -66.5 101.5t-60.5 27.5q37 16 75 33q25 18 25 84v39q0 37 -10 47q-35 20 -74 45 q-29 -29 -48.5 -49.5t-19.5 -42.5v-47q-76 0 -89 -13.5t-13 -87.5h-86v93q70 0 86 13t16 83h31q39 0 56.5 18.5t50.5 48.5q-20 35 -35 59.5t-47 24.5h-47q-68 0 -88 -26q-16 -43 -33 -74q-41 86 -47 90q-27 6 -80 37zM453 850q0 -57 35.5 -93t86.5 -36t92.5 35t41.5 94 q0 57 -40 97t-91 40t-88 -39t-37 -98z" />
<glyph unicode="+" horiz-adv-x="1153" d="M94 514q0 41 43 41t43 -43q0 -41 -43 -41t-43 43zM211 676q86 -27 109.5 -80t117.5 -53q86 0 98.5 12t12.5 96q0 100 -56.5 132t-78.5 102q41 -39 76 -52.5t88 -13.5q51 0 84.5 13.5t78.5 52.5q-27 -66 -79 -97.5t-52 -136.5q0 -84 12.5 -96t106.5 -12q88 0 114.5 52 t108.5 81q-41 -51 -55 -83t-14 -81q0 -51 12 -83t57 -85q-82 27 -107.5 81t-115.5 54q-88 0 -103.5 -8t-15.5 -68v-43q0 -90 55.5 -110.5t75.5 -97.5q-33 27 -64.5 41t-98.5 14q-59 0 -91 -10.5t-73 -49.5q25 78 80 100.5t55 112.5q0 88 -8.5 103.5t-65.5 15.5h-37 q-94 0 -119.5 -50t-105.5 -83q41 51 53.5 83t12.5 83q0 57 -23 98q-29 41 -45 66zM535 512q0 -41 43 -41t43 45q0 41 -43 41t-43 -45zM537 72q0 41 43 41t43 -43q0 -41 -43 -41t-43 43zM537 956q0 41 43 41t43 -43q0 -41 -43 -41t-43 43zM979 514q0 41 43 41t43 -43 q0 -41 -43 -41t-43 43z" />
<glyph unicode="," horiz-adv-x="491" d="M92 41q16 41 47 85t107 69q106 -98 106 -205q0 -76 -51 -142.5t-145 -117.5q31 35 46 68.5t15 64.5q0 57 -28.5 89t-96.5 89z" />
<glyph unicode="-" horiz-adv-x="1200" d="M162 360q51 156 180 195t358.5 46t311.5 50q-80 -166 -203 -200.5t-340 -37t-307 -53.5z" />
<glyph unicode="." horiz-adv-x="491" d="M72 18q18 33 80.5 104t91.5 75q37 0 92 -47.5t94 -106.5l-170 -170q-55 53 -93 82t-95 63z" />
<glyph unicode="/" horiz-adv-x="950" d="M78 -209l692 1557h102l-692 -1557h-102z" />
<glyph unicode="0" d="M53 416q0 184 135.5 327.5t311.5 143.5q168 0 263 -121t95 -299q0 -186 -136 -332.5t-308 -146.5q-164 0 -262.5 121.5t-98.5 306.5zM233 537q0 -160 47.5 -305.5t200.5 -145.5q86 0 139.5 73.5t53.5 188.5q0 166 -55.5 304.5t-188.5 138.5q-90 0 -143.5 -71.5 t-53.5 -182.5z" />
<glyph unicode="1" horiz-adv-x="573" d="M82 690q72 82 136.5 137.5t199.5 55.5v-752q0 -55 14 -76.5t64 -54.5h-351q29 23 58 47q27 31 26 84v539q0 57 -53 57q-39 0 -94 -37z" />
<glyph unicode="2" horiz-adv-x="868" d="M45 0q0 137 139 252q129 88 265.5 184t136.5 197q0 90 -38 142t-140 52q-63 0 -127 -48t-64 -115q0 -53 8 -88t45 -89q-98 51 -129.5 95.5t-31.5 115.5q0 80 103.5 136.5t246.5 56.5q156 0 247 -65.5t91 -211.5q0 -106 -277.5 -258.5t-310.5 -191.5q47 0 97 -1t104 -1 q156 0 269.5 9t172.5 38q-45 -70 -88 -137q-68 -76 -176 -76z" />
<glyph unicode="3" horiz-adv-x="868" d="M29 -154q66 -88 133 -178q86 -72 194 -71q137 0 199.5 106.5t62.5 239.5q0 170 -54 273t-185 103q-63 0 -154 -30q55 74 205 211t201 221h-309q-86 0 -121 -12.5t-105 -44.5q35 109 128 161t218 52h363q-49 -166 -197.5 -293t-201.5 -193q55 12 102 12q147 0 225 -113.5 t78 -285.5q0 -152 -139.5 -305.5t-331.5 -153.5q-182 0 -246.5 76t-64.5 225z" />
<glyph unicode="4" horiz-adv-x="983" d="M33 -68q82 113 215 394.5t206.5 404.5t170.5 133l116 13v-840q29 0 92.5 2t118.5 24q-6 -57 -46 -94t-165 -37v-247q0 -51 30 -81t60 -50h-364q29 20 58.5 50.5t29.5 80.5v247h-522zM172 37h381v715q-88 -106 -218 -386t-163 -329z" />
<glyph unicode="5" horiz-adv-x="950" d="M43 -6q104 -195 225 -285t234 -90q119 0 174 85t55 226q0 225 -100.5 313.5t-243.5 88.5q-80 0 -141.5 -26.5t-151.5 -88.5l225 660q37 0 76 -1.5t78 -1.5q143 0 233.5 10.5t157.5 45.5q-47 -166 -172 -202t-364 -36q-16 0 -64.5 -141t-64.5 -207q61 29 113.5 49.5 t142.5 20.5q195 0 330 -116t135 -314q0 -164 -105.5 -296t-359.5 -132q-221 0 -316.5 108.5t-95.5 329.5z" />
<glyph unicode="6" horiz-adv-x="983" d="M51 516q0 313 173 564t460 251q-197 -98 -297 -253.5t-137 -311.5q-10 -66 -19 -131q63 47 135 72.5t175 25.5q188 0 291.5 -103.5t103.5 -269.5q0 -182 -121 -279t-309 -97q-227 0 -341 142t-114 390zM250 430q0 -141 101.5 -259t223.5 -118q74 0 123.5 49.5t49.5 155.5 q0 160 -66 277.5t-195 117.5q-96 0 -166.5 -63.5t-70.5 -159.5z" />
<glyph unicode="7" horiz-adv-x="983" d="M-41 596q41 131 128 206t212 75h510q59 0 116.5 15t100.5 38q-92 -211 -254 -370t-299 -292q-127 -145 -127 -313q0 -86 47 -155.5t154 -133.5q-51 -63 -86 -100t-58 -37q-68 0 -153.5 124t-85.5 253q0 188 205.5 393t394.5 391h-555q-82 0 -124 -14t-126 -80z" />
<glyph unicode="8" horiz-adv-x="819" d="M29 274q0 143 57 217t180 160q-80 78 -117.5 153t-37.5 191q0 178 94 230.5t213 52.5q152 0 219.5 -81t67.5 -185q0 -98 -51.5 -146.5t-182.5 -138.5q104 -61 207.5 -155.5t103.5 -262.5q0 -156 -121.5 -240.5t-308.5 -84.5q-324 0 -323 290zM160 379q0 -162 89 -244 t189 -82q68 0 104 37t36 133q0 180 -70 255t-209 149q-76 -61 -107.5 -109.5t-31.5 -138.5zM205 1075q0 -98 69.5 -185t159.5 -134q45 27 92 61.5t47 145.5q0 109 -64.5 181.5t-150.5 72.5q-66 0 -109.5 -31t-43.5 -111z" />
<glyph unicode="9" horiz-adv-x="917" d="M59 473q0 188 126 299t302 111q195 0 286 -137.5t91 -356.5q0 -266 -123 -462.5t-280.5 -310.5t-267.5 -153q295 250 389 422t94 381q0 256 -72 377t-239 121q-88 0 -140.5 -54.5t-52.5 -129.5q0 -133 107.5 -289t310.5 -211q-299 0 -415 89t-116 304z" />
<glyph unicode=":" horiz-adv-x="491" d="M82 35q61 63 106.5 108t65.5 45t87 -66.5t67 -86.5q0 -70 -181 -170q-31 53 -77 100t-68 70zM82 514q61 63 106.5 109.5t65.5 46.5t87 -69t67 -87q0 -16 -57.5 -75.5t-123.5 -94.5q-35 59 -69 98q-61 57 -76 72z" />
<glyph unicode=";" horiz-adv-x="491" d="M100 41q16 41 47 85t107 69q106 -98 106 -205q0 -76 -51 -142.5t-145 -117.5q31 35 46 68.5t15 64.5q0 57 -28.5 89t-96.5 89zM111 518q100 106 122.5 129t42.5 23q23 0 88.5 -67.5t65.5 -88.5q0 -18 -51 -71.5t-119 -92.5q-39 66 -70 99q-66 55 -79 69z" />
<glyph unicode="&#x3c;" horiz-adv-x="872" d="M195 500v18l333 330h138l-318 -328v-16l318 -326h-138z" />
<glyph unicode="=" horiz-adv-x="851" d="M53 541q55 113 142.5 143.5t226.5 30.5h86q82 0 136 7t108 36q-70 -113 -163 -141.5t-239 -28.5q-147 0 -197.5 -9t-99.5 -38zM74 272q43 86 114.5 130t241.5 44q27 0 54.5 -1t56.5 -1q92 0 141 11.5t90 31.5q-70 -111 -161 -139.5t-232 -28.5q-139 0 -191.5 -5 t-113.5 -42z" />
<glyph unicode="&#x3e;" horiz-adv-x="747" d="M117 852h153l336 -334v-18l-342 -324h-137l326 324v18z" />
<glyph unicode="?" horiz-adv-x="1212" d="M88 901q0 184 131.5 319.5t446.5 135.5q231 0 347.5 -110.5t116.5 -315.5q0 -166 -87 -267.5t-313 -324.5t-226 -315q0 -66 34.5 -83.5t104.5 -17.5q53 0 104.5 67.5t51.5 147.5v33q-6 16 -8 23q20 -10 25 -48.5t7 -74.5q0 -113 -54 -189t-189 -76q-80 0 -130.5 46.5 t-50.5 142.5q0 139 129 303l242 274q131 162 131 287q0 219 -112.5 322.5t-272.5 103.5q-141 0 -222 -95t-81 -243q0 -133 46 -235.5t155 -173.5q-150 0 -238 109.5t-88 254.5zM397 -537q20 29 98.5 109t98.5 80q12 0 65.5 -50.5t114.5 -84.5q-12 -18 -92 -104.5t-104 -86.5 q-14 0 -61.5 48t-119.5 89z" />
<glyph unicode="@" horiz-adv-x="1343" d="M53 377q0 268 188.5 458.5t458.5 190.5q211 0 397.5 -126t186.5 -327q0 -231 -124 -370.5t-372 -139.5q-55 0 -88.5 24t-33.5 71q0 16 6 39l24 90q-119 -94 -209 -159t-139 -65q-47 0 -68.5 41t-21.5 97q0 109 57.5 239.5t218 232t449.5 101.5l-158 -579q-10 -45 70 -45 q131 0 226.5 121.5t95.5 273.5q0 184 -160 296.5t-352 112.5q-238 0 -408 -170t-170 -407q0 -238 170 -408t408 -170q137 0 253.5 58.5t200.5 162.5l64 -32q-92 -119 -228.5 -189.5t-294.5 -70.5q-270 0 -458.5 190.5t-188.5 458.5zM446 356q0 -41 18.5 -61.5t55.5 -20.5 q74 0 197 88l98 365q-145 0 -257 -123t-112 -248z" />
<glyph unicode="A" horiz-adv-x="1607" d="M8 -131q0 31 177 138.5t417 346.5q-92 23 -174 23q-86 0 -132 -15.5t-118 -52.5q59 55 136 80t163 25q80 0 158 -17q188 236 327.5 496t198.5 473q68 -311 158 -685t268 -702.5t457 -451.5h-156q-219 0 -370 154q-145 168 -289 333q-221 217 -559 318 q-57 -70 -153.5 -183.5t-227.5 -231.5t-211 -118q-39 0 -54.5 15.5t-15.5 54.5zM705 381q158 -39 294 -93.5t230 -129.5q-45 92 -100.5 311.5t-90.5 452.5q-63 -139 -146 -271.5t-187 -269.5z" />
<glyph unicode="B" horiz-adv-x="1871" d="M8 774q0 279 236.5 419t742.5 140l37 31v-31q340 0 506 -124t166 -353q0 -131 -45 -182t-172 -105q90 -33 222 -182t132 -315q0 -254 -266.5 -387.5t-608.5 -133.5q-203 0 -352 48.5t-178 134.5q96 -66 166 -90.5t168 -24.5v1172q0 88 59.5 244.5t110.5 224.5 q-487 0 -654 -118t-167 -298q0 -195 90 -314.5t319 -253.5q-250 0 -381 142.5t-131 355.5zM817 -379q379 0 564.5 88t185.5 346q0 209 -95.5 342t-246.5 172q158 45 212 115t54 172q0 238 -118 321t-351 83v-1270q0 -117 -67.5 -208t-137.5 -161z" />
<glyph unicode="C" horiz-adv-x="1490" d="M31 449q0 408 219 645t524 237h508q16 -76 85 -198.5t85 -178.5q-145 113 -291 228q-180 96 -377 96q-291 0 -396 -175t-105 -458q0 -315 159.5 -617t460.5 -302q246 0 362.5 94t192.5 241q0 -190 -125 -294.5t-467 -104.5q-360 0 -597.5 196.5t-237.5 590.5z" />
<glyph unicode="D" horiz-adv-x="2045" d="M8 766q0 250 183.5 405.5t721.5 155.5l37 33v-33q463 0 747.5 -201t284.5 -684q0 -453 -248.5 -670.5t-887.5 -217.5h-74q-172 0 -306 61t-183 266q76 -137 178 -186t227 -76v1180q0 88 63.5 234.5t114.5 213.5q-391 0 -573 -74.5t-182 -320.5q0 -207 88 -317.5 t327 -247.5q-258 0 -388 137t-130 342zM768 -377q301 0 505 47t327.5 192.5t123.5 428.5q0 453 -165.5 707.5t-602.5 254.5v-1235q0 -90 -61 -197.5t-127 -197.5z" />
<glyph unicode="E" horiz-adv-x="1738" d="M8 791q0 262 176 402t598 140l33 31v-31h731q0 -80 68.5 -197.5t89.5 -189.5q-133 119 -264 238q-143 86 -314 86h-313v-641q100 125 199.5 203.5t244.5 78.5q80 0 123 -45t43 -118q0 -68 -43 -146q6 53 6 88q0 84 -29.5 109.5t-82.5 25.5q-111 0 -286 -181t-175 -451 q0 -168 54.5 -203t234.5 -35q203 0 356.5 93t241.5 274q-10 -96 -60.5 -210t-93.5 -208h-1192q39 20 78 41q123 76 123 180v719q0 96 25.5 164.5t128.5 261.5q-332 0 -465 -97.5t-133 -328.5t76.5 -349t248.5 -214q-240 0 -334 145t-94 365z" />
<glyph unicode="F" horiz-adv-x="1882" d="M8 733q0 262 214 430t487 168q160 0 429 -2t371 -2q238 0 366 7t181 30q-80 -102 -208 -161.5t-267 -59.5h-752q166 -33 364 -186.5t224 -397.5q133 0 249 60.5t173 199.5l-121 -512q-31 88 -59 178q-72 -25 -132.5 -39t-96.5 -22q0 -416 -219.5 -645.5t-551.5 -229.5 q-309 0 -428.5 141.5t-119.5 348.5q0 258 177 382t439 124h422q-53 291 -217 431t-393 140q-203 0 -322 -96t-209 -287zM197 90q0 -178 145 -325.5t334 -147.5q246 0 362.5 201.5t116.5 597.5h-600q-147 0 -252.5 -90.5t-105.5 -235.5z" />
<glyph unicode="G" horiz-adv-x="1732" d="M27 451q0 418 224.5 665.5t627.5 247.5q106 0 316 -39t267 -39q-63 -123 -81.5 -177t-30.5 -136q-66 188 -209.5 260t-366.5 72q-272 0 -383.5 -178.5t-111.5 -454.5q0 -383 160.5 -669t473.5 -286q184 0 298 105.5t114 286.5q0 178 -84 217t-311 39q-104 0 -194.5 -20.5 t-157.5 -117.5q0 98 107.5 204t260.5 106q53 0 110.5 -1t117.5 -1q203 0 340 10t210 41q-29 -78 -111.5 -158t-232.5 -80q39 -45 53.5 -87t14.5 -134q0 -256 -163 -359.5t-425 -103.5q-438 0 -635.5 235.5t-197.5 551.5z" />
<glyph unicode="H" horiz-adv-x="1867" d="M8 860q0 223 159 348t372 125h475q-88 -37 -144.5 -93t-56.5 -138v-563q150 121 289 188.5t268 89.5v264q0 98 -35 148.5t-159 103.5h647q-127 -37 -157 -110.5t-36 -141.5l2 -243q117 -18 153 -47t52 -103q-59 53 -93 69.5t-110 16.5v-647q0 -80 53.5 -135t135.5 -88 h-633q84 35 131 90t47 133v627q-158 -31 -356.5 -207t-198.5 -371q0 -133 50 -184t138 -88h-643q80 33 139.5 100.5t59.5 151.5v1013q0 51 -31.5 77t-89.5 26q-111 0 -218 -80t-107 -262q0 -186 79.5 -312t258.5 -221q-227 0 -334 135.5t-107 327.5z" />
<glyph unicode="I" horiz-adv-x="1189" d="M8 862q0 244 186.5 357.5t387.5 113.5h690q-186 -78 -187 -229v-961q0 -66 40 -132t147 -111h-631q186 82 186 243v861q0 117 31 174q45 57 72 90h-367q-258 0 -355 -106.5t-97 -299.5q0 -152 81.5 -274.5t208.5 -122.5q119 0 148 104.5t82 104.5q39 0 39 -51 q0 -72 -74 -138.5t-211 -66.5q-178 0 -277.5 127t-99.5 317z" />
<glyph unicode="J" horiz-adv-x="1372" d="M8 -254q0 121 44 224.5t151 103.5q-72 -23 -107 -85.5t-35 -140.5q0 -199 147.5 -336t350.5 -137q244 0 361.5 181.5t117.5 414.5v1016q0 106 19.5 152.5t85.5 126.5h-430q-221 0 -308.5 -121t-87.5 -287q0 -156 85 -277.5t229 -121.5q113 0 171 63.5t87 169.5 q0 -162 -85 -220t-210 -58q-182 0 -280.5 127t-98.5 299q0 227 178.5 360t409.5 133h682q-90 -37 -139.5 -95t-49.5 -138v-975q0 -168 -58 -347t-234.5 -320.5t-497.5 -141.5q-281 0 -389.5 126t-108.5 304z" />
<glyph unicode="K" horiz-adv-x="1798" d="M8 809q0 240 176 382t422 142h1348q-115 -20 -201 -71.5t-170 -132t-208 -205.5t-146.5 -152t-22.5 -57q0 -25 29 -61t258 -314.5t426 -501.5t361.5 -342t320.5 -119q129 0 201.5 80t72.5 193q0 53 -22.5 87t-46.5 66q0 29 23.5 40.5t45.5 11.5q59 0 89 -53.5t30 -133.5 q0 -137 -103.5 -240.5t-271.5 -103.5q-211 0 -443 161t-472 409.5t-678 738.5v-488q0 -121 51 -168t125 -77h-698q147 33 201.5 96t54.5 149v973q0 86 -56.5 125t-132.5 39q-221 0 -340.5 -103.5t-119.5 -316.5q0 -203 91 -351.5t302 -211.5q-262 0 -379 143.5t-117 366.5z M1026 707q109 106 290 280t213 209t32 53q0 31 -42 40t-118 9h-62q-156 0 -234.5 -31.5t-78.5 -148.5v-411z" />
<glyph unicode="L" horiz-adv-x="1181" d="M8 827q0 256 166 381t348 125h889q-227 -49 -276.5 -94t-49.5 -137v-977q0 -82 119 -252t317.5 -301t442.5 -131q102 0 171 38t69 115q0 61 -49.5 99.5t-86.5 64.5q27 53 62 72.5t92 19.5q59 0 79.5 -63t20.5 -125q0 -129 -80.5 -200.5t-312.5 -71.5q-297 0 -451.5 93 t-330.5 257t-283 164h-360q-135 0 -246 -86q-57 -53 -113 -109q94 199 279 244q139 14 278 29q127 27 127 190v915q0 90 -64.5 142.5t-174.5 52.5q-264 0 -371.5 -108.5t-107.5 -311.5q0 -158 97 -266.5t206 -108.5q76 0 151.5 49.5t116.5 192.5q0 -154 -77 -218.5 t-204 -64.5q-197 0 -295 105.5t-98 275.5z" />
<glyph unicode="M" horiz-adv-x="1994" d="M-23 -61q53 -66 138.5 -110t183.5 -44q215 0 345 225.5t183.5 501.5t53.5 434q0 199 -41 279t-181 80q-252 0 -399 -129t-147 -351q0 -164 63 -286q70 -96 141 -191q0 -27 -44 -47t-74 -20q-63 51 -126 143t-63 301q0 315 214 477t607 162q141 0 221.5 -103.5t119 -249 t72.5 -266t63 -200.5q39 131 79 264q84 231 214.5 393t322.5 162q90 0 144.5 -35t80.5 -92q-41 45 -94 66.5t-112 21.5q-127 0 -199 -119t-72 -260q0 -174 99.5 -471t285 -561t432.5 -365h-190q-360 0 -538.5 293t-237.5 686q-14 172 -29 344q-55 -109 -131 -375t-109 -415 q-45 78 -99 220t-122.5 344t-97.5 284q0 -178 -78 -515t-225.5 -603.5t-347.5 -266.5q-125 0 -215.5 117t-90.5 277z" />
<glyph unicode="N" horiz-adv-x="1683" d="M8 831q0 276 164 397.5t471 121.5q223 0 293 -82t197 -262l374 -785v889q0 90 -59 140t-141 83h516q-152 -33 -205 -88t-53 -135v-997q145 -328 257.5 -431.5t288.5 -103.5q51 0 124 34t132 85q-55 -78 -126.5 -124t-212.5 -46q-301 0 -496 269.5t-426.5 763 t-362.5 611.5v-1044q0 -82 58.5 -134t146.5 -89h-512q150 33 200 85t50 138v1092q-45 45 -85 62t-114 17q-199 0 -287.5 -113.5t-88.5 -289.5q0 -215 92 -333t260 -197q-231 0 -343 135t-112 331z" />
<glyph unicode="O" horiz-adv-x="1806" d="M68 451q0 176 65.5 381.5t256 369.5t532.5 164q412 0 624.5 -205t212.5 -592q0 -440 -224 -672.5t-630 -232.5q-410 0 -623.5 210t-213.5 577zM324 690q0 -438 164.5 -697t519.5 -259q283 0 393 157.5t110 440.5q0 252 -52 463t-201.5 358t-415.5 147q-233 0 -375.5 -138 t-142.5 -472z" />
<glyph unicode="P" horiz-adv-x="1724" d="M8 784q0 287 240.5 421t664.5 134l41 37v-37q23 2 39 2q129 0 287 -37.5t289 -162.5t131 -367q0 -217 -121 -325.5t-305 -108.5q-115 0 -183.5 44t-68.5 91q92 -70 119.5 -81t91.5 -11q113 0 192.5 97.5t79.5 310.5q0 293 -176 391t-381 98v-1120q0 -125 138.5 -204 t138.5 -159q0 -20 -2 -30q-43 86 -127 111.5t-217 25.5q-260 0 -412 -129t-152 -264q0 -49 15.5 -73t99.5 -81q-23 -2 -35 -2q-68 0 -124 28.5t-56 110.5q0 106 123 234q115 106 229 211q125 125 125 221v641q0 92 39 248.5t133 230.5q-442 0 -597.5 -114.5t-155.5 -295.5 q0 -209 110.5 -353t329.5 -243q-264 0 -403.5 135.5t-139.5 374.5z" />
<glyph unicode="Q" horiz-adv-x="1861" d="M45 446q0 461 236.5 689.5t621.5 228.5q408 0 624 -210t216 -587q0 -276 -103 -475q-113 -147 -223 -295q27 -49 53 -98q74 -113 192 -197t284 -84q106 0 157 29t113 111q0 -84 -108.5 -146.5t-266.5 -62.5q-213 0 -339 105.5t-238 273.5q-57 -29 -163 -48.5t-214 -19.5 q-430 0 -636 217t-206 569zM299 688q0 -467 186.5 -717t452.5 -250q63 0 144 13.5t153 44.5q-90 195 -223 347.5t-262 152.5q-70 0 -108 -21.5t-71 -60.5q10 82 76 114.5t154 32.5q186 0 328.5 -138t234.5 -333q70 72 96.5 194.5t26.5 260.5q0 225 -54.5 443t-201 372.5 t-400.5 154.5q-258 0 -395 -133t-137 -477z" />
<glyph unicode="R" horiz-adv-x="1884" d="M8 807q0 264 207 397t705 133l32 31v-33q489 0 687 -90t198 -334q0 -205 -159.5 -322.5t-401.5 -117.5q78 -137 215 -363.5t374.5 -463t481.5 -236.5q125 0 258 74t191 131q-92 -135 -225.5 -212t-358.5 -77q-279 0 -499 175t-372.5 422t-308.5 581q270 0 408.5 65.5 t138.5 274.5q0 229 -130 330.5t-501 101.5v-1147q0 -72 42 -129t145 -96h-699q119 23 187.5 86t68.5 155v664q0 119 45 260t119 207q-444 0 -594.5 -106.5t-150.5 -290.5q0 -178 97 -319.5t333 -240.5q-256 0 -394.5 140.5t-138.5 349.5z" />
<glyph unicode="S" horiz-adv-x="1617" d="M8 127q0 102 22.5 174t96.5 113q-33 -37 -42 -83t-9 -112q0 -246 251 -402.5t638 -156.5q242 0 353.5 86t111.5 264q0 262 -324 361q-301 70 -602 139q-326 113 -326 412q0 170 116.5 290.5t276.5 120.5h678q0 -74 87 -233.5t96 -194.5q-182 203 -353.5 290t-429.5 87 q-190 0 -281.5 -78t-91.5 -196q0 -209 317.5 -285t625.5 -145q331 -127 331 -447q0 -256 -161.5 -433t-542.5 -177q-217 0 -396.5 41t-310.5 174t-131 391z" />
<glyph unicode="T" horiz-adv-x="1536" d="M4 733q0 283 210 440.5t493 157.5h204h162h129h103h79h64h47h39h31h22h49.5t26.5 2q61 0 173 11.5t204 25.5q-125 -133 -266.5 -186.5t-335.5 -53.5h-596q41 0 181 -68.5t269 -241.5t129 -466q0 -395 -220 -593.5t-546 -198.5q-301 0 -449.5 183t-148.5 384 q0 219 118 369.5t343 150.5q150 0 255.5 -99t105.5 -251q0 -102 -68 -176t-141 -96q39 66 59.5 121t20.5 135q0 152 -74 230.5t-191 78.5q-113 0 -227.5 -109.5t-114.5 -302.5q0 -231 147.5 -391t379.5 -160q244 0 362.5 203t118.5 465q0 416 -174 622.5t-440 206.5 q-219 0 -328 -96t-205 -297z" />
<glyph unicode="U" horiz-adv-x="1888" d="M8 801q0 190 168 361t553 171h479q-246 -258 -353 -473t-107 -454q0 -311 106.5 -394.5t306.5 -83.5q125 0 236.5 82t111.5 191v1011q0 57 -24.5 79t-79.5 42h395q55 0 104.5 -30.5t77.5 -79.5q-31 18 -64.5 38.5t-66.5 20.5q-23 0 -54.5 -23.5t-31.5 -80.5v-1045 q0 -66 49.5 -129t149.5 -100h-455v104q-76 -106 -213 -205.5t-309 -99.5q-281 0 -394.5 166t-113.5 453q0 231 86 415.5t202 312.5t237 222h-361q-258 0 -386 -128t-128 -327q0 -135 56.5 -250.5t174.5 -177.5q-160 18 -256 136t-96 276z" />
<glyph unicode="V" horiz-adv-x="1966" d="M4 768q0 268 187.5 416.5t429.5 148.5h514q-104 -104 -183.5 -311t-79.5 -494q0 -328 98.5 -576.5t264.5 -248.5q39 0 138.5 89t183 271.5t83.5 448.5q0 186 -87 341t-214 155q-23 0 -48 -22.5t-62 -63.5q18 117 102 230.5t162 113.5q104 0 257 -200t153 -450 q0 -281 -249 -627.5t-503 -346.5q-274 0 -405.5 238.5t-131.5 563.5q0 244 86 447t222 383h-275q-227 0 -382.5 -113.5t-155.5 -304.5q0 -141 81.5 -292.5t292.5 -272.5q-207 0 -343 134t-136 343z" />
<glyph unicode="W" horiz-adv-x="2322" d="M8 805q0 260 161 394t384 135h530q-49 -6 -134 -30t-85 -75q0 -6 4 -19l387 -985q25 61 59 156.5t90 258.5t81 234q-82 213 -120 295t-177 165h629q-193 -59 -193 -124q0 -16 6 -34l375 -951q109 326 174.5 527.5t73.5 240.5t8 66q0 109 -82 173t-203 102h752 q-145 -27 -246.5 -114t-134.5 -167l-430 -1293l-397 1033l-353 -1033q-10 33 -117.5 308.5t-188.5 483.5t-156.5 402.5t-124 257t-117.5 62.5q-129 0 -232.5 -101.5t-103.5 -300.5q0 -156 83 -296t228 -140q80 0 148.5 62.5t68.5 138.5q0 39 -20 74q49 -37 49 -101 q0 -82 -78 -151.5t-205 -69.5q-125 0 -259 100.5t-134 315.5z" />
<glyph unicode="X" horiz-adv-x="1658" d="M8 774q0 236 144.5 409t490.5 173q262 0 408.5 -150.5t181.5 -292.5l194 318q-20 47 -28 60.5t-76 41.5h514q-262 -43 -341 -137t-243 -346q145 -578 399.5 -885t530.5 -307q121 0 202 49t140 117q-68 -119 -175 -175.5t-288 -56.5q-326 0 -541.5 197t-317 411 t-150.5 386q-129 -193 -186.5 -282t-96.5 -169t-39 -137q0 -39 34 -62.5t54 -37.5h-450q127 49 222 142t208.5 265t228.5 348q-78 254 -128 373t-145.5 199t-250.5 80q-203 0 -289 -149.5t-86 -364.5q0 -170 57.5 -266.5t198.5 -178.5q-203 0 -290 129t-87 299z" />
<glyph unicode="Y" horiz-adv-x="858" d="M-160 1333h654q-53 -20 -90 -42.5t-37 -59.5q0 -2 86 -106.5t159.5 -216t87.5 -191.5q53 246 229 463t455 217q186 0 295 -134.5t109 -328.5q-92 211 -179 275.5t-241 64.5q-221 0 -354 -139.5t-190.5 -316.5t-57.5 -281v-394q0 -70 56.5 -139.5t166.5 -99.5h-600 q92 37 140.5 87t48.5 136v444q0 70 -83 227.5t-248 311.5t-407 223z" />
<glyph unicode="Z" horiz-adv-x="1605" d="M33 -129q0 238 149.5 376t376.5 138q225 0 353 -124t128 -292q0 -68 -24 -133q0 176 -164 327.5t-365 151.5q-174 0 -249.5 -102t-75.5 -258q0 -266 145.5 -415.5t376.5 -149.5q270 0 440 207.5t170 494.5q0 238 -147.5 383.5t-378.5 145.5q-119 0 -242 -39l625 548h-705 q-100 0 -227 -45l-133 -57q61 96 202.5 200.5t307.5 104.5h752q23 -2 36 -2q41 0 79 5.5t85 21.5l-717 -625q274 0 503 -174t229 -502q0 -109 -69 -280.5t-269.5 -316t-573.5 -144.5q-297 0 -457.5 148.5t-160.5 406.5z" />
<glyph unicode="[" horiz-adv-x="536" d="M76 -338v1352h395v-51h-139v-1250h139v-51h-395z" />
<glyph unicode="\" horiz-adv-x="929" d="M94 1151h86l666 -1352h-86z" />
<glyph unicode="]" horiz-adv-x="557" d="M76 -287h137v1250h-137v51h395v-1352h-395v51z" />
<glyph unicode="^" horiz-adv-x="813" d="M61 346q4 4 159 163.5t190 190.5l344 -354h-95l-239 240h-23l-241 -240h-95z" />
<glyph unicode="_" horiz-adv-x="929" d="M-4 -82h942v-51h-942v51z" />
<glyph unicode="`" horiz-adv-x="413" d="M37 1225q0 33 43 32q72 0 182 -151l86 -152q-31 0 -171 98.5t-140 172.5z" />
<glyph unicode="a" horiz-adv-x="946" d="M53 291q0 279 153.5 432.5t399.5 153.5h178v-758q2 -27 27 -27q18 0 44 13.5t83 46.5q-27 -55 -89.5 -108.5t-119.5 -53.5q-33 0 -85 45t-52 121v110q-125 -125 -211 -200.5t-150 -75.5q-70 0 -124 82t-54 219zM250 446q0 -100 32.5 -147t90.5 -47q49 0 105.5 29.5 t113.5 80.5v457q-154 0 -248 -114t-94 -259z" />
<glyph unicode="b" horiz-adv-x="757" d="M45 356v656q0 150 79 252t208 102h184q-66 -119 -170 -126t-104 -38v-661q102 170 194 253t158 83q74 0 97.5 -40t23.5 -147v-250q0 -211 -116 -330.5t-282 -119.5q-123 0 -197.5 82t-74.5 284zM242 258q0 -180 131 -180q55 0 99 56t44 190v262q0 43 -8 66.5t-51 23.5 q-68 0 -141.5 -100.5t-73.5 -141.5v-176z" />
<glyph unicode="c" horiz-adv-x="806" d="M37 360q0 236 135 379.5t348 143.5q80 0 168 -52.5t88 -128.5q0 -20 -53 -75.5t-92 -77.5q-18 92 -94 149.5t-156 57.5q-76 0 -124 -83t-48 -194q0 -197 91 -277.5t208 -80.5q49 0 106.5 27.5t118.5 68.5q-82 -125 -163 -175t-224 -50q-199 0 -254 106.5t-55 261.5z" />
<glyph unicode="d" horiz-adv-x="937" d="M53 291q0 279 151.5 432.5t387.5 153.5v139q0 147 78 248.5t211 101.5h182q-66 -119 -172.5 -126t-106.5 -38v-1083q2 -27 27 -27q18 0 44 13.5t83 46.5q-25 -53 -88.5 -105.5t-120.5 -58.5q-33 0 -85 47t-52 121v110q-123 -123 -210 -200.5t-151 -77.5q-70 0 -124 83 t-54 220zM250 446q0 -100 32.5 -147t90.5 -47q49 0 105.5 29.5t113.5 80.5v457q-154 0 -248 -114t-94 -259z" />
<glyph unicode="e" horiz-adv-x="847" d="M61 360q0 238 133 381.5t330 143.5q80 0 132.5 -29t142.5 -119l-498 -497q41 -68 101.5 -87.5t136.5 -19.5t142.5 35t119.5 74q-82 -125 -180.5 -187.5t-225.5 -62.5q-182 0 -258 116.5t-76 251.5zM254 467q0 -49 6.5 -93t22.5 -87q72 70 143 139q109 117 109 176 q0 72 -35 112t-92 40q-72 0 -113 -85t-41 -202z" />
<glyph unicode="f" horiz-adv-x="583" d="M-262 -684q41 133 219 137t178 146v1159h-141l108 121h35v100q0 158 79 272.5t208 114.5h393q-51 -88 -132 -110.5t-204 -22.5q-100 0 -127.5 -5t-27.5 -44v-305q234 0 254 43q-41 -94 -97.5 -129t-156.5 -35v-854q0 -309 -112 -448.5t-259 -139.5h-217z" />
<glyph unicode="g" horiz-adv-x="839" d="M53 291q0 266 177.5 426t375.5 160l178 2v-983q0 -244 -146 -414t-333 -170q-137 0 -191.5 82t-54.5 211q0 88 30 176t142 219q-72 0 -125 77t-53 214zM182 -352q0 -117 51.5 -166t139.5 -49q98 0 158.5 90t60.5 215v528q-147 -145 -293 -291q-117 -164 -117 -327z M250 446q0 -100 32.5 -147t90.5 -47q49 0 105.5 29.5t113.5 80.5v457q-154 0 -248 -114t-94 -259z" />
<glyph unicode="h" horiz-adv-x="880" d="M43 -8v1020q0 147 80 250.5t209 103.5h184q-66 -119 -170 -126t-104 -38v-661q102 172 195 256t157 84q74 0 97.5 -41t23.5 -150l-2 -571q2 -27 24 -27q31 0 117 60q-29 -61 -85 -110.5t-126 -49.5t-98.5 44t-28.5 107v443q0 43 -8 66.5t-51 23.5q-68 0 -141.5 -100.5 t-73.5 -141.5v-241q0 -78 -57.5 -139.5t-141.5 -61.5z" />
<glyph unicode="i" horiz-adv-x="534" d="M27 713q10 39 83.5 106.5t139.5 67.5q63 0 89 -49.5t26 -116.5v-576q8 -57 43 -57q25 0 57.5 26.5t42.5 35.5q-49 -84 -99.5 -123t-113.5 -39q-53 0 -86 45t-33 106v604q0 39 -29 39q-39 0 -120 -69zM139 1196q0 78 37 107.5t100 29.5q51 0 86 -36.5t35 -100.5 q0 -72 -61.5 -113t-110.5 -41q-43 0 -64.5 46.5t-21.5 107.5z" />
<glyph unicode="j" horiz-adv-x="401" d="M-397 -209q55 -162 147 -252t238 -90q111 0 141.5 100.5t30.5 257.5v938q0 41 -31 41q-33 0 -106 -47q35 51 83.5 101.5t124.5 50.5q78 0 95.5 -55.5t21.5 -114.5v-817q0 -231 -158.5 -411.5t-320.5 -180.5q-156 0 -211 134t-55 345zM106 1196q0 78 37.5 107.5 t100.5 29.5q51 0 86 -36.5t35 -100.5q0 -72 -61.5 -113t-110.5 -41q-43 0 -65 46.5t-22 107.5z" />
<glyph unicode="k" horiz-adv-x="876" d="M43 -8v1020q0 147 80 250.5t209 103.5h184q-66 -119 -170 -126t-104 -38v-651q129 143 231 235.5t197 92.5h188q-137 -41 -281.5 -127t-238.5 -172q143 -27 235.5 -240t190.5 -213q20 0 48 11.5t69 39.5q-29 -63 -97.5 -124.5t-136.5 -61.5q-98 0 -193.5 219t-211.5 231 v-249q0 -78 -57.5 -139.5t-141.5 -61.5z" />
<glyph unicode="l" horiz-adv-x="450" d="M41 160v852q0 147 81 250.5t210 103.5h184q-66 -119 -170 -126t-104 -38v-1042q0 -37 28 -37q25 0 67 27.5t93 72.5q-51 -94 -130 -164.5t-142 -70.5q-61 0 -89 46t-28 126z" />
<glyph unicode="m" horiz-adv-x="1394" d="M-55 666q78 98 142.5 154.5t100.5 56.5q57 0 72.5 -62.5t15.5 -193.5v-76q80 125 169.5 228.5t187.5 103.5q76 0 100.5 -51.5t24.5 -153.5q0 -31 -1 -60.5t-1 -60.5q76 109 169 217.5t187 108.5q66 0 93.5 -35t27.5 -119v-590q0 -49 31 -49q35 0 106 66q-25 -68 -80 -115 t-127 -47q-119 0 -119 153v445q0 53 -16 77.5t-53 24.5q-47 0 -133 -108.5t-86 -124.5v-349q-10 -43 -68.5 -80.5t-124.5 -37.5v598q0 47 -10 74.5t-57 27.5q-51 0 -135.5 -107.5t-84.5 -125.5v-349q-10 -43 -70.5 -80.5t-119.5 -37.5v700q0 33 -25 33q-31 0 -116 -55z" />
<glyph unicode="n" horiz-adv-x="913" d="M-55 666q78 98 142.5 154.5t100.5 56.5q57 0 72.5 -62.5t15.5 -193.5v-76q80 125 169.5 228.5t187.5 103.5q76 0 100.5 -51.5t24.5 -153.5q0 -31 -1 -60.5t-1 -60.5q0 -59 -1 -126t-1 -161v-93t2 -42q0 -45 30 -45q41 0 113 68q-41 -78 -103.5 -121t-111.5 -43 q-55 0 -89 33.5t-34 103.5l2 461q0 47 -10 74.5t-57 27.5q-51 0 -135.5 -107.5t-84.5 -125.5v-349q-10 -43 -70.5 -80.5t-119.5 -37.5v700q0 33 -25 33q-31 0 -116 -55z" />
<glyph unicode="o" d="M53 416q0 184 135.5 327.5t311.5 143.5q168 0 263 -121t95 -299q0 -188 -139 -333.5t-311 -145.5q-162 0 -258.5 121.5t-96.5 306.5zM233 537q0 -168 44.5 -309.5t197.5 -141.5q88 0 143.5 73.5t55.5 188.5q0 166 -55.5 304.5t-188.5 138.5q-90 0 -143.5 -71.5 t-53.5 -182.5z" />
<glyph unicode="p" horiz-adv-x="888" d="M-53 649q59 80 135 160t154 80q37 0 46 -33t9 -184q55 68 112 137q80 80 181 80q70 0 162 -111.5t92 -310.5q0 -203 -163 -340t-265 -137q-27 0 -61 23.5t-58 43.5v-446q0 -76 69.5 -143.5t79.5 -88.5q-96 49 -127.5 59.5t-72.5 10.5q-59 0 -95 -16.5t-190 -116.5 q8 25 77.5 100.5t69.5 163.5v1075q0 20 -10 28.5t-29 8.5q-37 0 -68.5 -16.5t-47.5 -26.5zM291 250q0 -55 42 -101.5t105 -46.5q92 0 146.5 100.5t54.5 213.5q0 152 -40 219t-101 67q-70 0 -138.5 -64.5t-68.5 -94.5v-293z" />
<glyph unicode="q" horiz-adv-x="872" d="M53 291q0 279 153.5 432.5t399.5 153.5h178v-1221q0 -35 58.5 -91.5t91.5 -113.5q-45 43 -87 55.5t-106 12.5q-74 0 -130 -29t-150 -98q0 14 65.5 95t65.5 118v661q-125 -125 -211 -200.5t-150 -75.5q-70 0 -124 82t-54 219zM250 446q0 -100 32.5 -147t90.5 -47 q49 0 105.5 29.5t113.5 80.5v457q-154 0 -248 -114t-94 -259z" />
<glyph unicode="r" horiz-adv-x="823" d="M-29 651q33 68 117 152t125 84q57 0 72.5 -54.5t15.5 -189.5v-92q78 109 158 217q100 119 198 119q55 0 87 -40t32 -97q0 -70 -77.5 -155t-153.5 -159q10 20 21.5 68.5t11.5 85.5q0 45 -15.5 73.5t-52.5 28.5q-39 0 -97.5 -70.5t-111.5 -142.5v-383q-35 -33 -82 -66.5 t-108 -41.5v678q0 43 -41 43q-18 0 -43 -13.5t-56 -44.5z" />
<glyph unicode="s" horiz-adv-x="675" d="M35 340q39 -106 127 -192.5t211 -86.5q141 0 141 127q0 61 -149.5 129t-233.5 131.5t-84 213.5q0 129 80 178t213 49q35 0 96.5 -12.5t71.5 -12.5q33 0 55.5 5.5t61.5 23.5q-35 -55 -51.5 -110.5t-28.5 -100.5q-66 72 -123 100.5t-133 28.5t-106.5 -26.5t-30.5 -71.5 q0 -51 153.5 -116t242.5 -128t89 -203q0 -164 -101.5 -217t-256.5 -53q-158 0 -201 58.5t-43 285.5z" />
<glyph unicode="t" horiz-adv-x="544" d="M-12 791q6 47 109.5 105t199.5 304v-322h168q-27 -59 -75 -72t-93 -15v-621q0 -45 35 -45q29 0 73 27.5t105 85.5q-57 -109 -135 -179.5t-158 -70.5q-61 0 -84.5 50t-23.5 179v574h-121z" />
<glyph unicode="u" horiz-adv-x="1003" d="M-27 741q47 76 103 112t117 36q68 0 84 -51.5t20 -104.5v-385v-55q0 -63 15.5 -97t70.5 -34q51 0 127 78.5t76 140.5v352q0 63 54 109.5t134 46.5v-729q6 -8 15.5 -16.5t31.5 -8.5q29 0 69 21.5t97 76.5q-45 -72 -132 -158.5t-165 -86.5q-57 0 -80.5 33.5t-23.5 99.5v90 q-96 -102 -176 -162.5t-168 -60.5q-74 0 -103.5 69.5t-29.5 169.5v475q0 39 -8.5 57.5t-34.5 18.5q-33 0 -93 -37z" />
<glyph unicode="v" horiz-adv-x="966" d="M-37 625q41 68 146.5 163t154.5 95q92 0 221 -282t187 -351q29 35 60.5 111.5t31.5 156.5t-40 132t-124 106q23 43 77 102.5t95 59.5q33 0 96.5 -83t63.5 -184q0 -51 -135 -272t-207 -397q-96 150 -193.5 364.5t-138.5 277t-131 62.5q-14 0 -74.5 -21.5t-89.5 -39.5z" />
<glyph unicode="w" horiz-adv-x="1570" d="M-53 668q43 70 129 144.5t164 74.5q82 0 221 -293t172 -350q14 18 93 188t95 215q-18 27 -37 55q-27 33 -73 48q31 45 69.5 91t83.5 46q49 0 90 -79t143.5 -301t147.5 -259q37 47 88 162.5t51 154.5q0 59 -48 129t-109 107q43 68 83.5 110.5t73.5 42.5t92.5 -69.5 t59.5 -134.5q0 -41 -53 -146.5t-173 -336t-151 -304.5q-156 311 -309 623q-33 -94 -161 -338t-142 -277q-164 375 -269.5 568.5t-168.5 193.5q-29 0 -69 -14t-93 -51z" />
<glyph unicode="x" horiz-adv-x="1005" d="M-49 735q92 106 132 130t120 24q123 0 193.5 -99.5t115.5 -234.5q18 33 73.5 117t55.5 127t-80 80h336q-109 -41 -182.5 -113t-175.5 -268q45 -154 117.5 -283t160.5 -129q31 0 57.5 13.5t102.5 54.5q-35 -82 -97.5 -124t-146.5 -42q-121 0 -200.5 93t-143.5 238 q-35 -55 -83 -136t-48 -105q0 -18 28.5 -42t69.5 -36h-329q82 27 170 127t165 262q-61 182 -123.5 286.5t-142.5 104.5q-47 0 -145 -45z" />
<glyph unicode="y" horiz-adv-x="956" d="M-37 614q59 92 146.5 183.5t156.5 91.5q94 0 230.5 -290t187.5 -359q33 59 63.5 131.5t30.5 148.5q0 84 -42 142.5t-124 95.5q31 55 68 109.5t94 54.5q31 0 98.5 -86t67.5 -185q0 -49 -147.5 -311t-221 -412.5t-73.5 -271.5q0 -100 58 -180t155 -80q80 0 124 42t89 148 q0 -158 -93.5 -215t-216.5 -57q-160 0 -233.5 52t-73.5 188q0 109 64.5 212t181.5 257q-37 82 -101.5 225t-142.5 284.5t-103.5 147.5t-45.5 6q-47 0 -98.5 -21.5t-98.5 -50.5z" />
<glyph unicode="z" horiz-adv-x="839" d="M-20 307q47 57 109.5 115.5t135.5 58.5h131l254 252h-346q-59 0 -90 -17.5t-31 -64.5t39 -71q51 -23 68 -31q-109 0 -152 36t-43 85q0 115 91 161t204 46h479l-399 -396h137q29 0 62 7.5t76 29.5q-74 -96 -125.5 -137t-133.5 -41h-155q-49 -41 -98.5 -92t-49.5 -105h426 q104 0 174 93q53 100 60 110q2 -23 2 -39q0 -115 -35 -213t-139 -98l-578 4q0 106 42 188t126 152h-141q-39 0 -61.5 -10.5t-38.5 -22.5z" />
<glyph unicode="{" horiz-adv-x="716" d="M100 227q70 0 91.5 92.5t21.5 239.5v68q0 98 115.5 245.5t281.5 147.5q-147 -80 -165.5 -168t-32 -318.5t-97.5 -316.5q70 -70 84.5 -160t14.5 -245q0 -156 28.5 -254.5t137.5 -169.5q-137 0 -252 158.5t-115 252.5v97q0 152 -21.5 241.5t-91.5 89.5z" />
<glyph unicode="|" horiz-adv-x="372" d="M119 -549v1897h119v-1897h-119z" />
<glyph unicode="}" horiz-adv-x="716" d="M131 1020q166 0 281.5 -146.5t115.5 -246.5v-72q0 -143 21.5 -235.5t91.5 -92.5q-70 0 -91.5 -92t-21.5 -246v-90q0 -94 -114.5 -252.5t-253.5 -158.5q131 88 157 258q4 152 11.5 316.5t97.5 254.5q-84 84 -97.5 318.5t-31.5 319.5t-166 165z" />
<glyph unicode="~" horiz-adv-x="933" d="M76 922q14 98 71.5 163.5t151.5 65.5q53 0 190.5 -68.5t202.5 -68.5q78 0 113 31.5t76 80.5q-20 -104 -72.5 -167.5t-151.5 -63.5q-68 0 -196.5 67.5t-196.5 67.5q-70 0 -102.5 -24.5t-85.5 -83.5z" />
<glyph unicode="&#xa1;" horiz-adv-x="747" d="M51 -686q66 100 126.5 379.5t98 412t170.5 349.5q39 -104 58.5 -203.5t19.5 -190.5q0 -211 -87 -368.5t-193.5 -247.5t-192.5 -131zM231 799q20 27 97.5 107.5t99.5 80.5q16 0 63.5 -49t118.5 -88q-57 -63 -117.5 -125.5t-80.5 -62.5q-14 0 -68.5 52t-112.5 85z" />
<glyph unicode="&#xa2;" horiz-adv-x="874" d="M90 518q0 190 107.5 300t216.5 110v125h86v-125q82 0 175 -74t109 -174q-96 111 -284 111v-558q100 0 163.5 25t127.5 86q-31 -115 -119 -176.5t-170 -61.5v-131h-86v131q-127 0 -226.5 101.5t-99.5 310.5zM233 516q0 -127 49.5 -205t131.5 -78v558q-90 0 -135.5 -70 t-45.5 -205z" />
<glyph unicode="&#xa3;" horiz-adv-x="995" d="M14 176q0 96 56.5 141t142.5 45q66 0 123 -22q-29 160 -80 295h-193l31 115h125q-4 25 -10 70.5t-6 70.5q0 184 117.5 290.5t271.5 106.5q123 0 222 -76.5t99 -222.5q0 -72 -29.5 -119t-86.5 -47q-53 0 -76 31t-23 78q0 33 6.5 62.5t12.5 49.5q0 49 -41 74t-84 25 q-82 0 -127 -63.5t-45 -166.5q0 -41 7 -79.5t22 -83.5h292l-32 -115h-224q25 -53 47.5 -140t22.5 -157q0 -35 -6 -66q68 -51 121 -79.5t92 -28.5q29 0 45 18.5t16 61.5q0 29 -12 43t-47 14q-25 0 -55 -8l-33 104q63 35 123 35q74 0 123 -56.5t49 -166.5q0 -102 -60.5 -171 t-144.5 -69q-55 0 -133 50.5t-148 103.5q-45 -74 -117.5 -114t-150.5 -40t-140.5 54.5t-62.5 152.5zM152 176q0 -55 41 -55q37 0 75.5 29.5t53.5 48.5q-23 16 -52.5 27.5t-58.5 11.5q-27 0 -43 -14.5t-16 -47.5z" />
<glyph unicode="&#xa4;" horiz-adv-x="1378" d="M209 377l82 82q-37 66 -52.5 116t-15.5 119q0 127 68 242l-82 80l147 147l80 -82q113 70 238 70q139 0 248 -70l79 82l144 -147l-82 -80q70 -109 70 -240q0 -63 -16.5 -124.5t-53.5 -112.5l82 -82l-144 -146l-79 82q-117 -72 -238 -71q-139 0 -248 71l-80 -82zM358 696 q0 -127 92.5 -223t227.5 -96q133 0 226 95t93 224t-91 224.5t-228 95.5q-133 0 -226.5 -95.5t-93.5 -224.5z" />
<glyph unicode="&#xa7;" horiz-adv-x="905" d="M53 -6q0 59 33 94t82 35q88 0 118.5 -119t147.5 -119q88 0 135 43t47 115q0 90 -195.5 150.5t-265 97.5t-69.5 203q0 74 26.5 136t75.5 99q-43 33 -67.5 90.5t-24.5 120.5q0 168 109.5 258t251.5 90q109 0 224.5 -70.5t115.5 -193.5q0 -49 -32 -83t-73 -34 q-78 0 -110.5 109.5t-126.5 109.5q-76 0 -108 -34.5t-32 -87.5q0 -72 167 -128.5t254 -113.5t87 -230q0 -129 -80 -208q82 -82 82 -213q0 -197 -125 -295.5t-290 -98.5q-170 0 -263.5 88.5t-93.5 188.5zM293 567q0 -68 103.5 -104.5t213.5 -71.5q6 20 11.5 39t5.5 33 q0 82 -102.5 119.5t-188.5 70.5q-18 -16 -30.5 -38.5t-12.5 -47.5z" />
<glyph unicode="&#xa8;" horiz-adv-x="569" d="M78 1112q0 62 82 62q27 0 44 -26t17 -56q0 -39 -23.5 -50.5t-58.5 -11.5q-27 0 -44 25.5t-17 56.5zM352 1112q0 29 23.5 45.5t56.5 16.5q29 0 46.5 -25t17.5 -57q0 -39 -23.5 -50.5t-58.5 -11.5q-29 0 -45.5 26.5t-16.5 55.5z" />
<glyph unicode="&#xa9;" horiz-adv-x="1376" d="M49 403q0 268 189.5 458t457.5 190t457.5 -189.5t189.5 -458.5q0 -270 -188 -458.5t-459 -188.5q-268 0 -457.5 189.5t-189.5 457.5zM125 403q0 -240 167.5 -407.5t407.5 -167.5q238 0 406 168t168 407q0 236 -168 406t-406 170q-240 0 -407.5 -168t-167.5 -408zM315 387 q0 203 109.5 321.5t263.5 118.5h252q8 -37 43 -99t43 -89q-74 57 -145 115q-90 47 -189 47q-143 0 -197.5 -87t-54.5 -229q0 -156 81 -307t231 -151q123 0 182 48t94 120q0 -94 -62.5 -147.5t-232.5 -53.5q-180 0 -299 98t-119 295z" />
<glyph unicode="&#xab;" horiz-adv-x="667" d="M55 575l168 361l84 -57l-84 -289l84 -320l-84 -63zM338 590l166 346l86 -57l-86 -289l86 -320l-86 -63z" />
<glyph unicode="&#xad;" horiz-adv-x="1200" d="M162 360q51 156 180 195t358.5 46t311.5 50q-80 -166 -203 -200.5t-340 -37t-307 -53.5z" />
<glyph unicode="&#xae;" horiz-adv-x="1409" d="M49 551q0 268 189.5 457.5t457.5 189.5t457.5 -189.5t189.5 -457.5q0 -150 -60 -278t-173 -220q37 -33 70.5 -49t70.5 -16q39 0 91.5 29.5t87.5 72.5q-37 -66 -89.5 -104.5t-142.5 -38.5q-84 0 -160 53q-158 -96 -342 -96q-268 0 -457.5 189.5t-189.5 457.5zM125 551 q0 -240 168 -408t407 -168q72 0 145 20.5t136 55.5q-76 78 -135.5 200t-120.5 284q111 0 166 32.5t55 137.5q0 115 -53 166t-201 51v-574q0 -39 16.5 -66.5t57.5 -48.5h-279q102 27 103 123v334q4 59 16 125t49 107q-178 0 -238.5 -53.5t-60.5 -143.5t40 -160.5t132 -122.5 q-102 0 -157.5 71t-55.5 177q0 131 83 196.5t282 65.5l12 19v-17q197 0 276 -46t79 -169q0 -96 -62.5 -152.5t-161.5 -66.5q41 -92 96.5 -203.5t141.5 -212.5q100 80 156.5 197t56.5 250q0 236 -168 405.5t-406 169.5q-240 0 -407.5 -167.5t-167.5 -407.5z" />
<glyph unicode="&#xb0;" horiz-adv-x="806" d="M209 1159q0 86 55.5 143.5t141.5 57.5q90 0 147 -57.5t57 -141.5q0 -90 -58 -146.5t-144 -56.5q-90 0 -144.5 56.5t-54.5 144.5zM299 1159q0 -41 35 -73.5t76 -32.5q43 0 76.5 29.5t33.5 76.5q0 43 -34.5 78t-77.5 35q-41 0 -75 -34t-34 -79z" />
<glyph unicode="&#xb1;" horiz-adv-x="1124" d="M90 39v139h946v-139h-946zM90 539v139h404v250h139v-250h403v-139h-403v-250h-139v250h-404z" />
<glyph unicode="&#xb4;" horiz-adv-x="413" d="M70 983l86 152q110 151 184 151q43 0 43 -33q0 -74 -140.5 -172t-172.5 -98z" />
<glyph unicode="&#xb5;" horiz-adv-x="1179" d="M150 -285l4 119l4 182l-2 207l-4 195v502h188v-607q0 -145 28.5 -194t102.5 -49q117 0 194.5 165.5t77.5 417.5v267h189v-672q0 -92 19.5 -135t58.5 -43q41 0 64.5 42t23.5 126v28h43l2 -18v-27q0 -113 -48 -176t-137 -63q-100 0 -154 88t-54 264q-47 -182 -126 -267 t-198 -85q-86 0 -150 53q-57 55 -81 158l-2 -58q0 -133 65.5 -290.5t65.5 -186.5q0 -41 -22.5 -63.5t-63.5 -22.5q-47 0 -67.5 35t-20.5 108z" />
<glyph unicode="&#xb6;" horiz-adv-x="1337" d="M43 737q0 109 40 203t96.5 135t115.5 58.5t172 17.5h41h754q-90 -25 -115 -59.5t-25 -143.5v-1200q0 -117 19.5 -147.5t120.5 -53.5h-902q84 25 112 68t28 94v31v582q-78 0 -156 15t-146.5 57t-111.5 134.5t-43 208.5zM158 741q0 -100 51 -185t125 -85q94 0 138 47 t44 223q0 168 -35 205t-127 37q-76 0 -136 -74.5t-60 -167.5zM764 -328q0 -25 14.5 -37t32.5 -12q45 0 45 49v1354q0 25 -14.5 37t-32.5 12q-45 0 -45 -49v-1354z" />
<glyph unicode="&#xb8;" horiz-adv-x="602" d="M27 -375h43q113 0 186.5 26.5t73.5 112.5q0 43 -31 61.5t-70 18.5h-55l16 156h89l-13 -100l64 4q53 0 94 -41t41 -107q0 -96 -54.5 -144t-136.5 -48q-63 0 -134.5 13t-112.5 48z" />
<glyph unicode="&#xbb;" horiz-adv-x="667" d="M55 270l86 320l-86 289l86 57l166 -346l-166 -383zM330 270l92 320l-92 289l92 57l168 -361l-176 -368z" />
<glyph unicode="&#xbf;" horiz-adv-x="1091" d="M70 -297q0 150 145 320q135 133 277.5 272t142.5 223q0 59 -33 75.5t-94 16.5q-47 0 -93 -62.5t-46 -135.5q0 -25 6 -47q-18 10 -21.5 43.5t-5.5 68.5q0 98 49 168t168 70q72 0 117 -41t45 -129q0 -125 -115 -271q-106 -123 -213 -243q-115 -143 -114 -267 q0 -174 99 -260t228 -86q115 0 180.5 78t65.5 197q0 129 -25.5 217t-117.5 147q135 0 214 -100t79 -229q0 -168 -118 -288t-401 -120q-209 0 -314 99.5t-105 283.5zM389 973q45 57 103.5 114.5t74.5 57.5t60.5 -45t103.5 -80q-37 -43 -98.5 -105.5t-79.5 -62.5 q-14 0 -65.5 48t-98.5 73z" />
<glyph unicode="&#xc0;" horiz-adv-x="1286" d="M6 -104q0 25 142.5 111.5t332.5 275.5q-80 20 -143 20q-68 0 -105.5 -14.5t-89.5 -40.5q47 45 107.5 64.5t132.5 19.5q25 0 53.5 -3t71.5 -12q152 190 262.5 397.5t159.5 379.5q104 -479 152 -667.5t187.5 -448t364.5 -357.5h-123q-176 0 -297 123q-117 133 -231 266 q-178 176 -446 256q-45 -55 -120 -144t-182.5 -185.5t-173.5 -96.5q-41 0 -48 15.5t-7 40.5zM563 305q121 -31 233.5 -75t186.5 -103q-86 182 -152 610q-51 -115 -117.5 -218t-150.5 -214zM737 1339q0 25 45 25q72 0 183 -121q43 -62 86 -121q-31 0 -172.5 79t-141.5 138z " />
<glyph unicode="&#xc1;" horiz-adv-x="1286" d="M6 -104q0 25 142.5 111.5t332.5 275.5q-80 20 -143 20q-68 0 -105.5 -14.5t-89.5 -40.5q47 45 107.5 64.5t132.5 19.5q25 0 53.5 -3t71.5 -12q152 190 262.5 397.5t159.5 379.5q104 -479 152 -667.5t187.5 -448t364.5 -357.5h-123q-176 0 -297 123q-117 133 -231 266 q-178 176 -446 256q-45 -55 -120 -144t-182.5 -185.5t-173.5 -96.5q-41 0 -48 15.5t-7 40.5zM563 305q121 -31 233.5 -75t186.5 -103q-86 182 -152 610q-51 -115 -117.5 -218t-150.5 -214zM791 1118q43 59 86 121q110 121 184 121q43 0 43 -27q0 -57 -141.5 -136t-171.5 -79 z" />
<glyph unicode="&#xc2;" horiz-adv-x="1286" d="M6 -104q0 25 142.5 111.5t332.5 275.5q-80 20 -143 20q-68 0 -105.5 -14.5t-89.5 -40.5q47 45 107.5 64.5t132.5 19.5q25 0 53.5 -3t71.5 -12q152 190 262.5 397.5t159.5 379.5q104 -479 152 -667.5t187.5 -448t364.5 -357.5h-123q-176 0 -297 123q-117 133 -231 266 q-178 176 -446 256q-45 -55 -120 -144t-182.5 -185.5t-173.5 -96.5q-41 0 -48 15.5t-7 40.5zM563 305q121 -31 233.5 -75t186.5 -103q-86 182 -152 610q-51 -115 -117.5 -218t-150.5 -214zM618 1106q51 98 135.5 141t159.5 68q76 -23 156 -65t111 -144q-70 33 -149 63.5 t-126 30.5q-45 0 -128 -30.5t-159 -63.5z" />
<glyph unicode="&#xc3;" horiz-adv-x="1286" d="M6 -104q0 25 142.5 111.5t332.5 275.5q-80 20 -143 20q-68 0 -105.5 -14.5t-89.5 -40.5q47 45 107.5 64.5t132.5 19.5q25 0 53.5 -3t71.5 -12q152 190 262.5 397.5t159.5 379.5q104 -479 152 -667.5t187.5 -448t364.5 -357.5h-123q-176 0 -297 123q-117 133 -231 266 q-178 176 -446 256q-45 -55 -120 -144t-182.5 -185.5t-173.5 -96.5q-41 0 -48 15.5t-7 40.5zM563 305q121 -31 233.5 -75t186.5 -103q-86 182 -152 610q-51 -115 -117.5 -218t-150.5 -214zM594 1110q14 94 75.5 161.5t145.5 67.5q51 0 133 -45t137 -45q78 0 113 32t76 81 q-20 -98 -78.5 -165t-144.5 -67q-43 0 -133.5 45.5t-135.5 45.5q-70 0 -103.5 -25t-84.5 -86z" />
<glyph unicode="&#xc4;" horiz-adv-x="1286" d="M6 -104q0 25 142.5 111.5t332.5 275.5q-80 20 -143 20q-68 0 -105.5 -14.5t-89.5 -40.5q47 45 107.5 64.5t132.5 19.5q25 0 53.5 -3t71.5 -12q152 190 262.5 397.5t159.5 379.5q104 -479 152 -667.5t187.5 -448t364.5 -357.5h-123q-176 0 -297 123q-117 133 -231 266 q-178 176 -446 256q-45 -55 -120 -144t-182.5 -185.5t-173.5 -96.5q-41 0 -48 15.5t-7 40.5zM563 305q121 -31 233.5 -75t186.5 -103q-86 182 -152 610q-51 -115 -117.5 -218t-150.5 -214zM707 1231q0 25 21 42t60 17q29 0 45.5 -24.5t16.5 -57.5q0 -39 -23.5 -49t-58.5 -10 q-27 0 -44 25.5t-17 56.5zM981 1231q0 27 24.5 43t55.5 16q29 0 46 -23.5t17 -58.5q0 -39 -23.5 -49t-58.5 -10q-20 0 -40.5 20.5t-20.5 61.5z" />
<glyph unicode="&#xc5;" horiz-adv-x="1286" d="M6 -104q0 25 142.5 111.5t332.5 275.5q-80 20 -143 20q-68 0 -105.5 -14.5t-89.5 -40.5q47 45 107.5 64.5t132.5 19.5q25 0 53.5 -3t71.5 -12q129 160 230.5 339.5t158.5 338.5q-66 10 -113 62.5t-47 120.5q0 80 55.5 135t135.5 55q78 0 134 -54t56 -134 q0 -74 -49 -124.5t-123 -60.5q74 -346 140.5 -579.5t203.5 -468t344 -326.5h-123q-176 0 -297 123q-117 133 -231 266q-178 176 -446 256q-45 -55 -120 -144t-182.5 -185.5t-173.5 -96.5q-41 0 -48 15.5t-7 40.5zM563 305q121 -31 233.5 -75t186.5 -103q-86 182 -152 610 q-51 -115 -117.5 -218t-150.5 -214zM831 1184q0 -43 27 -70t72 -27q41 0 69.5 27t28.5 70q0 39 -30.5 65.5t-71.5 26.5t-68 -26.5t-27 -65.5z" />
<glyph unicode="&#xc6;" horiz-adv-x="2310" d="M8 -131q0 37 196.5 165t436.5 365q-78 18 -137 19q-100 0 -195 -45q-86 -51 -110 -64q78 74 188.5 118t214.5 44q45 0 78 -8q121 152 206 300t149.5 301t121.5 308v-39h973q0 -78 67.5 -196.5t90.5 -190.5q-133 119 -265 238q-143 86 -315 86l-221 2q-90 0 -90 -92v-551 q100 125 199.5 203.5t242.5 78.5q80 0 124 -44t44 -119q0 -70 -45 -146q8 49 8 92q0 82 -29.5 106.5t-85.5 24.5q-109 0 -283.5 -182t-174.5 -450q0 -168 54 -203t235 -35q203 0 356 93t242 274q-10 -98 -60.5 -211t-93.5 -207l-1221 2q82 8 156 50t74 112q0 68 -142.5 166 t-287.5 145q-61 -76 -166 -199t-244 -252t-221 -129q-39 0 -54.5 15.5t-15.5 54.5zM758 446q135 -35 205.5 -66.5t175.5 -111.5v903q-55 -193 -161 -382t-220 -343z" />
<glyph unicode="&#xc7;" horiz-adv-x="1191" d="M25 528q0 328 175 517.5t418 189.5h408q12 -57 66.5 -155.5t68.5 -145.5q-117 90 -231 182q-141 76 -303 76q-231 0 -316.5 -141.5t-85.5 -364.5q0 -254 128 -494.5t370 -240.5q199 0 289 72.5t155 195.5q0 -150 -101 -234.5t-374 -84.5h-24l-9 -84l56 4q49 0 86 -37 t37 -96q0 -86 -50.5 -130t-121.5 -44q-57 0 -123 12t-103 45h41q102 0 168 23.5t66 99.5q0 39 -29 56.5t-61 17.5h-52l15 139q-250 29 -406.5 183.5t-156.5 438.5z" />
<glyph unicode="&#xc8;" horiz-adv-x="1390" d="M6 612q0 211 140.5 323t480.5 112l24 24v-24h586q0 -61 55.5 -156.5t71.5 -153.5l-152 148q-141 111 -311 110h-250v-512q76 96 158 161t197 65q61 0 97 -36t36 -93q0 -53 -35 -117q6 41 6 69q0 70 -22.5 89.5t-67.5 19.5q-88 0 -228.5 -145.5t-140.5 -360.5 q0 -135 42 -162.5t188 -27.5q162 0 285.5 74.5t193.5 218.5q-8 -80 -48 -169t-75 -165h-954q68 35 114.5 70.5t46.5 105.5v575q0 94 24 147.5t99 192.5q-268 0 -373.5 -76.5t-105.5 -263.5q0 -184 61.5 -278t198.5 -172q-193 0 -267.5 115.5t-74.5 291.5zM541 1339 q0 25 45 25q72 0 182 -121q43 -62 86 -121q-31 0 -172 79t-141 138z" />
<glyph unicode="&#xc9;" horiz-adv-x="1390" d="M0 612q0 211 140 323t478 112l27 24v-24h586q0 -61 54 -155.5t71 -154.5q-76 74 -150 148q-139 111 -311 110h-252v-512q78 96 160 161t196 65q61 0 97.5 -36t36.5 -93q0 -53 -35 -117q6 41 6 69q0 68 -23.5 88.5t-68.5 20.5q-88 0 -228.5 -145.5t-140.5 -360.5 q0 -135 43 -162.5t188 -27.5q332 0 480 293q-8 -76 -49 -167t-74 -167h-955q68 35 115 70.5t47 105.5v575q0 94 23.5 147.5t99.5 192.5q-268 0 -373.5 -76.5t-105.5 -263.5q0 -184 61.5 -278t198.5 -172q-193 0 -267.5 115.5t-74.5 291.5zM784 1118q41 59 84 121 q109 121 185 121q45 0 45 -27q0 -57 -141.5 -136t-172.5 -79z" />
<glyph unicode="&#xca;" horiz-adv-x="1390" d="M6 612q0 211 140.5 323t480.5 112l24 24v-24h586q0 -61 55.5 -156.5t71.5 -153.5l-152 148q-141 111 -311 110h-250v-512q76 96 158 161t197 65q61 0 97 -36t36 -93q0 -53 -35 -117q6 41 6 69q0 70 -22.5 89.5t-67.5 19.5q-88 0 -228.5 -145.5t-140.5 -360.5 q0 -135 42 -162.5t188 -27.5q162 0 285.5 74.5t193.5 218.5q-8 -80 -48 -169t-75 -165h-954q68 35 114.5 70.5t46.5 105.5v575q0 94 24 147.5t99 192.5q-268 0 -373.5 -76.5t-105.5 -263.5q0 -184 61.5 -278t198.5 -172q-193 0 -267.5 115.5t-74.5 291.5zM565 1133 q51 98 135 141t160 67q76 -25 156.5 -67.5t109.5 -140.5q-70 31 -149.5 61.5t-122.5 30.5q-49 0 -131 -30t-158 -62z" />
<glyph unicode="&#xcb;" horiz-adv-x="1390" d="M6 612q0 211 140.5 323t480.5 112l24 24v-24h586q0 -61 55.5 -156.5t71.5 -153.5l-152 148q-141 111 -311 110h-250v-512q76 96 158 161t197 65q61 0 97 -36t36 -93q0 -53 -35 -117q6 41 6 69q0 70 -22.5 89.5t-67.5 19.5q-88 0 -228.5 -145.5t-140.5 -360.5 q0 -135 42 -162.5t188 -27.5q162 0 285.5 74.5t193.5 218.5q-8 -80 -48 -169t-75 -165h-954q68 35 114.5 70.5t46.5 105.5v575q0 94 24 147.5t99 192.5q-268 0 -373.5 -76.5t-105.5 -263.5q0 -184 61.5 -278t198.5 -172q-193 0 -267.5 115.5t-74.5 291.5zM659 1264 q0 25 21.5 42t60.5 17q29 0 46.5 -23.5t17.5 -58.5q0 -39 -23.5 -49t-58.5 -10q-29 0 -46.5 24.5t-17.5 57.5zM936 1264q0 27 24.5 43t55.5 16q29 0 45 -24.5t16 -57.5q0 -39 -23.5 -49t-58.5 -10q-18 0 -38.5 21.5t-20.5 60.5z" />
<glyph unicode="&#xcc;" horiz-adv-x="952" d="M6 670q0 197 148.5 287t310.5 90h553q-150 -61 -150 -183v-770q0 -53 33 -106.5t117 -87.5h-506q150 68 150 194v688q0 92 24 140q37 47 57 73h-292q-207 0 -285 -85t-78 -240q0 -121 65.5 -219.5t168.5 -98.5q96 0 118.5 84t63.5 84q33 0 33 -43q0 -55 -59.5 -108.5 t-170.5 -53.5q-141 0 -221 101.5t-80 253.5zM496 1339q0 25 43 25q72 0 182 -121q43 -62 86 -121q-31 0 -171 79t-140 138z" />
<glyph unicode="&#xcd;" horiz-adv-x="952" d="M6 670q0 197 148.5 287t310.5 90h553q-150 -61 -150 -183v-770q0 -53 33 -106.5t117 -87.5h-506q150 68 150 194v688q0 92 24 140q37 47 57 73h-292q-207 0 -285 -85t-78 -240q0 -121 65.5 -219.5t168.5 -98.5q96 0 118.5 84t63.5 84q33 0 33 -43q0 -55 -59.5 -108.5 t-170.5 -53.5q-141 0 -221 101.5t-80 253.5zM692 1118q43 59 86 121q111 121 185 121q43 0 43 -27q0 -57 -141.5 -136t-172.5 -79z" />
<glyph unicode="&#xce;" horiz-adv-x="952" d="M6 670q0 197 148.5 287t310.5 90h553q-150 -61 -150 -183v-770q0 -53 33 -106.5t117 -87.5h-506q150 68 150 194v688q0 92 24 140q37 47 57 73h-292q-207 0 -285 -85t-78 -240q0 -121 65.5 -219.5t168.5 -98.5q96 0 118.5 84t63.5 84q33 0 33 -43q0 -55 -59.5 -108.5 t-170.5 -53.5q-141 0 -221 101.5t-80 253.5zM494 1133q51 98 135 141t159 67q76 -25 157 -67.5t110 -140.5q-70 31 -150 61.5t-123 30.5q-49 0 -131 -30t-157 -62z" />
<glyph unicode="&#xcf;" horiz-adv-x="952" d="M6 670q0 197 148.5 287t310.5 90h553q-150 -61 -150 -183v-770q0 -53 33 -106.5t117 -87.5h-506q150 68 150 194v688q0 92 24 140q37 47 57 73h-292q-207 0 -285 -85t-78 -240q0 -121 65.5 -219.5t168.5 -98.5q96 0 118.5 84t63.5 84q33 0 33 -43q0 -55 -59.5 -108.5 t-170.5 -53.5q-141 0 -221 101.5t-80 253.5zM594 1264q0 25 21.5 42t60.5 17q29 0 46 -23.5t17 -58.5q0 -39 -23.5 -49t-58.5 -10q-29 0 -46 24.5t-17 57.5zM870 1264q0 27 24.5 43t55.5 16q29 0 45.5 -24.5t16.5 -57.5q0 -39 -23.5 -49t-58.5 -10q-18 0 -39 21.5t-21 60.5z " />
<glyph unicode="&#xd1;" horiz-adv-x="1347" d="M0 645q0 223 131 319.5t377 96.5q178 0 235.5 -68.5t155.5 -208.5l301 -626v710q0 74 -47 113t-115 66h414q-123 -27 -165 -70t-42 -109v-798q96 -213 178 -319.5t260 -106.5q43 0 98.5 24.5t106.5 69.5q-43 -61 -101 -98t-171 -37q-242 0 -394.5 211t-340 610 t-293.5 494v-836q0 -63 47 -106.5t117 -71.5h-410q121 27 161 68.5t40 109.5v872q-35 33 -71 49.5t-89 16.5q-158 0 -229.5 -91t-71.5 -233q0 -174 71.5 -266t211.5 -158q-186 0 -275.5 107.5t-89.5 265.5zM553 1104q16 94 78.5 161.5t144.5 67.5q51 0 133 -45t135 -45 q63 0 102.5 27.5t86.5 85.5q-18 -98 -76.5 -165t-144.5 -67q-43 0 -133.5 45t-137.5 45q-68 0 -100.5 -24.5t-87.5 -85.5z" />
<glyph unicode="&#xd2;" horiz-adv-x="1445" d="M53 360q0 139 53.5 306.5t205 297.5t425.5 130q330 0 500 -164t170 -475q0 -354 -178 -538.5t-504 -184.5q-330 0 -501 167t-171 461zM258 553q0 -350 132 -558t417 -208q225 0 313 126t88 353q0 418 -148.5 596t-385.5 178q-188 0 -302 -109.5t-114 -377.5zM508 1339 q0 25 45 25q72 0 182 -121q43 -62 86 -121q-31 0 -172 79t-141 138z" />
<glyph unicode="&#xd3;" horiz-adv-x="1445" d="M53 360q0 139 53.5 306.5t205 297.5t425.5 130q330 0 500 -164t170 -475q0 -354 -178 -538.5t-504 -184.5q-330 0 -501 167t-171 461zM258 553q0 -350 132 -558t417 -208q225 0 313 126t88 353q0 418 -148.5 596t-385.5 178q-188 0 -302 -109.5t-114 -377.5zM668 1118 q41 59 84 121q108 121 184 121q43 0 43 -27q0 -57 -140.5 -136t-170.5 -79z" />
<glyph unicode="&#xd4;" horiz-adv-x="1445" d="M53 360q0 139 53.5 306.5t205 297.5t425.5 130q330 0 500 -164t170 -475q0 -354 -178 -538.5t-504 -184.5q-330 0 -501 167t-171 461zM258 553q0 -350 132 -558t417 -208q225 0 313 126t88 353q0 418 -148.5 596t-385.5 178q-188 0 -302 -109.5t-114 -377.5zM446 1133 q51 98 135.5 141t159.5 67q78 -25 159 -67.5t110 -140.5q-70 31 -151 61.5t-124 30.5q-49 0 -131 -30t-158 -62z" />
<glyph unicode="&#xd5;" horiz-adv-x="1445" d="M53 360q0 139 53.5 306.5t205 297.5t425.5 130q330 0 500 -164t170 -475q0 -354 -178 -538.5t-504 -184.5q-330 0 -501 167t-171 461zM258 553q0 -350 132 -558t417 -208q225 0 313 126t88 353q0 418 -148.5 596t-385.5 178q-188 0 -302 -109.5t-114 -377.5zM356 1118 q16 94 79 162t145 68q51 0 133 -45.5t135 -45.5q80 0 114.5 32t73.5 79q-18 -98 -76.5 -164.5t-144.5 -66.5q-43 0 -133 45t-137 45q-68 0 -100.5 -24.5t-88.5 -84.5z" />
<glyph unicode="&#xd6;" horiz-adv-x="1445" d="M53 360q0 139 53.5 306.5t205 297.5t425.5 130q330 0 500 -164t170 -475q0 -354 -178 -538.5t-504 -184.5q-330 0 -501 167t-171 461zM258 553q0 -350 132 -558t417 -208q225 0 313 126t88 353q0 418 -148.5 596t-385.5 178q-188 0 -302 -109.5t-114 -377.5zM504 1249 q0 62 82 62q27 0 44 -25.5t17 -56.5q0 -39 -23.5 -50.5t-58.5 -11.5q-27 0 -44 26t-17 56zM778 1249q0 29 23.5 45.5t56.5 16.5q29 0 46.5 -24.5t17.5 -57.5q0 -39 -24 -50.5t-58 -11.5q-27 0 -44.5 28t-17.5 54z" />
<glyph unicode="&#xd8;" horiz-adv-x="1806" d="M68 451q0 176 65.5 381.5t256 369.5t532.5 164q270 0 456 -90l54 86h102l-82 -127q307 -195 307 -666q0 -440 -224 -672.5t-630 -232.5q-240 0 -416 76l-47 -74h-102l72 113q-170 96 -257 267t-87 405zM324 690q0 -242 47 -427t149 -314l760 1177q-78 84 -185.5 129 t-252.5 45q-233 0 -375.5 -138t-142.5 -472zM582 -115q84 -76 187 -113.5t239 -37.5q283 0 393 157.5t110 440.5q0 215 -38 400.5t-134 326.5z" />
<glyph unicode="&#xd9;" horiz-adv-x="1511" d="M6 621q0 152 135.5 289t442.5 137h383q-195 -205 -282 -379t-87 -363q0 -250 85 -316.5t247 -66.5q100 0 189 65.5t89 153.5v809q0 45 -21.5 62.5t-62.5 34.5h316q43 0 83 -25t62 -64q-25 14 -49 31q-31 16 -55 17q-27 0 -47.5 -25t-20.5 -59v-836q0 -53 38 -102.5 t120 -79.5h-363v84q-66 -90 -172 -168t-245 -78q-227 0 -317.5 133t-90.5 363q0 182 69.5 332.5t162 251t188.5 175.5h-289q-209 0 -310.5 -101t-101.5 -261q0 -109 45.5 -202t141.5 -142q-129 14 -206 108.5t-77 221.5zM803 1339q0 25 45 25q72 0 182 -121q43 -62 86 -121 q-31 0 -172 79t-141 138z" />
<glyph unicode="&#xda;" horiz-adv-x="1511" d="M12 621q0 152 135.5 289t442.5 137h383q-195 -205 -282 -379t-87 -363q0 -250 85 -316.5t247 -66.5q100 0 189 65.5t89 153.5v809q0 45 -21.5 62.5t-62.5 34.5h316q43 0 84 -25t63 -64q-59 35 -72.5 41.5t-33.5 6.5q-27 0 -47.5 -25t-20.5 -59v-836q0 -53 38 -102.5 t120 -79.5h-363v84q-66 -90 -172 -168t-245 -78q-227 0 -317.5 133t-90.5 363q0 182 69.5 332.5t162 251t188.5 175.5h-289q-207 0 -308 -101t-101 -261q0 -113 44 -203t140 -141q-129 14 -206 108.5t-77 221.5zM1067 1118q41 59 84 121q108 121 184 121q45 0 45 -27 q0 -57 -141 -136t-172 -79z" />
<glyph unicode="&#xdb;" horiz-adv-x="1511" d="M0 621q0 152 135.5 289t442.5 137h383q-193 -203 -281 -378t-88 -364q0 -250 85 -316.5t245 -66.5q102 0 190 65.5t88 153.5v809q0 45 -21.5 63.5t-60.5 33.5h316q43 0 82.5 -25t62.5 -64q-25 14 -49 31q-31 16 -55 17q-20 0 -45 -18.5t-25 -65.5v-836q0 -51 40 -101.5 t120 -80.5h-365v84q-63 -90 -169.5 -168t-248.5 -78q-225 0 -315 133t-90 363q0 182 69.5 332.5t161.5 251t189 175.5h-289q-209 0 -310.5 -101t-101.5 -261q0 -109 45 -202t142 -142q-129 14 -206 108.5t-77 221.5zM735 1133q51 98 135 141t160 67q76 -25 156.5 -67.5 t111.5 -140.5q-70 31 -150.5 61.5t-123.5 30.5q-49 0 -131 -30t-158 -62z" />
<glyph unicode="&#xdc;" horiz-adv-x="1511" d="M0 621q0 152 135.5 289t442.5 137h383q-193 -203 -281 -378t-88 -364q0 -250 85 -316.5t245 -66.5q102 0 190 65.5t88 153.5v809q0 45 -21.5 63.5t-60.5 33.5h316q43 0 82.5 -25t62.5 -64q-25 14 -49 31q-31 16 -55 17q-20 0 -45 -18.5t-25 -65.5v-836q0 -51 40 -101.5 t120 -80.5h-365v84q-63 -90 -169.5 -168t-248.5 -78q-225 0 -315 133t-90 363q0 182 69.5 332.5t161.5 251t189 175.5h-289q-209 0 -310.5 -101t-101.5 -261q0 -109 45 -202t142 -142q-129 14 -206 108.5t-77 221.5zM838 1231q0 25 21.5 42t60.5 17q29 0 45 -24.5t16 -57.5 q0 -39 -23.5 -49t-58.5 -10q-27 0 -44 25.5t-17 56.5zM1112 1231q0 27 24.5 43t55.5 16q29 0 46 -23.5t17 -58.5q0 -39 -23.5 -49t-57.5 -10q-20 0 -41 20.5t-21 61.5z" />
<glyph unicode="&#xdf;" horiz-adv-x="1146" d="M-252 -709q12 27 74.5 119t75.5 92q23 0 48 -2t40 -2q115 0 153.5 37t38.5 129v1026q-37 29 -88 29q-39 0 -78 -35l127 156h39q0 219 154.5 371.5t238.5 152.5q61 0 220 -98.5t174 -120.5q-41 6 -202 -151.5t-161 -194.5q0 -63 172 -137t252 -128.5t80 -193.5 q0 -170 -111.5 -259t-246.5 -89q-158 0 -200 56t-42 278q47 -121 119.5 -201t205.5 -80q72 0 114 71.5t42 153.5q0 80 -115.5 140.5t-228.5 119.5q-121 86 -121 218q0 88 103.5 195.5t109.5 105.5q-68 49 -144.5 96t-135.5 47q-27 0 -50.5 -24.5t-35 -47t-11.5 -43.5v-1063 q0 -141 -135 -394t-172 -290t-73.5 -43t-86.5 -6q-51 0 -93 4t-50 6z" />
<glyph unicode="&#xe0;" horiz-adv-x="946" d="M53 291q0 279 153.5 432.5t399.5 153.5h178v-758q2 -27 27 -27q18 0 44 13.5t83 46.5q-27 -55 -89.5 -108.5t-119.5 -53.5q-33 0 -85 45t-52 121v110q-125 -125 -211 -200.5t-150 -75.5q-70 0 -124 82t-54 219zM250 446q0 -100 32.5 -147t90.5 -47q49 0 105.5 29.5 t113.5 80.5v457q-154 0 -248 -114t-94 -259zM332 1225q0 33 43 32q72 0 182 -151l86 -152q-31 0 -171 98.5t-140 172.5z" />
<glyph unicode="&#xe1;" horiz-adv-x="946" d="M53 291q0 279 153.5 432.5t399.5 153.5h178v-758q2 -27 27 -27q18 0 44 13.5t83 46.5q-27 -55 -89.5 -108.5t-119.5 -53.5q-33 0 -85 45t-52 121v110q-125 -125 -211 -200.5t-150 -75.5q-70 0 -124 82t-54 219zM250 446q0 -100 32.5 -147t90.5 -47q49 0 105.5 29.5 t113.5 80.5v457q-154 0 -248 -114t-94 -259zM471 983q41 76 84 152q108 151 184 151q43 0 43 -33q0 -74 -140 -172t-171 -98z" />
<glyph unicode="&#xe2;" horiz-adv-x="946" d="M53 291q0 279 153.5 432.5t399.5 153.5h178v-758q2 -27 27 -27q18 0 44 13.5t83 46.5q-27 -55 -89.5 -108.5t-119.5 -53.5q-33 0 -85 45t-52 121v110q-125 -125 -211 -200.5t-150 -75.5q-70 0 -124 82t-54 219zM186 1028q57 139 150.5 201.5t177.5 97.5q82 -33 173 -94.5 t124 -204.5q-78 45 -165 88t-138 43t-143.5 -43t-178.5 -88zM250 446q0 -100 32.5 -147t90.5 -47q49 0 105.5 29.5t113.5 80.5v457q-154 0 -248 -114t-94 -259z" />
<glyph unicode="&#xe3;" horiz-adv-x="946" d="M53 291q0 279 153.5 432.5t399.5 153.5h178v-758q2 -27 27 -27q18 0 44 13.5t83 46.5q-27 -55 -89.5 -108.5t-119.5 -53.5q-33 0 -85 45t-52 121v110q-125 -125 -211 -200.5t-150 -75.5q-70 0 -124 82t-54 219zM127 999q16 94 78.5 162t144.5 68q51 0 133 -45t135 -45 q80 0 115 31.5t74 78.5q-18 -96 -76.5 -162.5t-144.5 -66.5q-43 0 -133.5 45t-137.5 45q-68 0 -100.5 -24.5t-87.5 -86.5zM250 446q0 -100 32.5 -147t90.5 -47q49 0 105.5 29.5t113.5 80.5v457q-154 0 -248 -114t-94 -259z" />
<glyph unicode="&#xe4;" horiz-adv-x="946" d="M53 291q0 279 153.5 432.5t399.5 153.5h178v-758q2 -27 27 -27q18 0 44 13.5t83 46.5q-27 -55 -89.5 -108.5t-119.5 -53.5q-33 0 -85 45t-52 121v110q-125 -125 -211 -200.5t-150 -75.5q-70 0 -124 82t-54 219zM250 446q0 -100 32.5 -147t90.5 -47q49 0 105.5 29.5 t113.5 80.5v457q-154 0 -248 -114t-94 -259zM293 1112q0 27 21.5 44.5t60.5 17.5q29 0 46 -25t17 -57q0 -39 -23.5 -50.5t-58.5 -11.5q-29 0 -46 25.5t-17 56.5zM569 1112q0 29 23.5 45.5t56.5 16.5q27 0 44.5 -26t17.5 -56q0 -39 -23.5 -50.5t-58.5 -11.5q-18 0 -39 21.5 t-21 60.5z" />
<glyph unicode="&#xe5;" horiz-adv-x="946" d="M53 291q0 279 153.5 432.5t399.5 153.5h178v-758q2 -27 27 -27q18 0 44 13.5t83 46.5q-27 -55 -89.5 -108.5t-119.5 -53.5q-33 0 -85 45t-52 121v110q-125 -125 -211 -200.5t-150 -75.5q-70 0 -124 82t-54 219zM250 446q0 -100 32.5 -147t90.5 -47q49 0 105.5 29.5 t113.5 80.5v457q-154 0 -248 -114t-94 -259zM389 1145q0 80 55.5 135t135.5 55q78 0 134 -54t56 -134t-56.5 -132t-138.5 -52q-74 0 -130 54t-56 128zM483 1151q0 -41 28 -67.5t71 -26.5q41 0 69.5 26.5t28.5 67.5q0 39 -31 65.5t-71 26.5q-41 0 -68 -26.5t-27 -65.5z" />
<glyph unicode="&#xe6;" horiz-adv-x="1376" d="M53 291q0 281 153.5 436.5t399.5 155.5l383 2q113 0 183.5 -31t158.5 -117l-500 -497q37 -57 86.5 -82t151.5 -25q78 0 143.5 35t118.5 74q-82 -125 -180 -187.5t-225 -62.5q-147 0 -229.5 89t-102.5 189q-141 -141 -219 -210.5t-144 -69.5q-70 0 -124 82t-54 219z M250 426q0 -98 28.5 -141t83.5 -43q47 0 110 34.5t120 85.5q0 131 37 246t192 217h-172q-225 0 -312 -126t-87 -273zM784 510q0 -68 8.5 -129t20.5 -94q72 70 143 139q109 117 109 176q0 72 -35 112t-92 40q-66 0 -110 -78t-44 -166z" />
<glyph unicode="&#xe7;" horiz-adv-x="806" d="M37 360q0 236 135 379.5t348 143.5q80 0 168 -52.5t88 -128.5q0 -20 -53 -75.5t-92 -77.5q-18 92 -94 149.5t-156 57.5q-76 0 -124 -83t-48 -194q0 -197 91 -277.5t208 -80.5q49 0 106.5 27.5t118.5 68.5q-80 -123 -156.5 -174t-205.5 -51l-6 -78l55 4q49 0 86 -37 t37 -96q0 -86 -50.5 -130t-121.5 -44q-57 0 -123 12t-103 45h41q102 0 168 23.5t66 99.5q0 39 -29 56.5t-61 17.5h-51l12 131q-162 16 -208 119.5t-46 244.5z" />
<glyph unicode="&#xe8;" horiz-adv-x="847" d="M61 360q0 238 133 381.5t330 143.5q80 0 132.5 -29t142.5 -119l-498 -497q41 -68 101.5 -87.5t136.5 -19.5t142.5 35t119.5 74q-82 -125 -180.5 -187.5t-225.5 -62.5q-182 0 -258 116.5t-76 251.5zM254 467q0 -49 6.5 -93t22.5 -87q72 70 143 139q109 117 109 176 q0 72 -35 112t-92 40q-72 0 -113 -85t-41 -202zM258 1225q0 33 45 32q72 0 182 -151l86 -152q-31 0 -172 99.5t-141 171.5z" />
<glyph unicode="&#xe9;" horiz-adv-x="847" d="M61 360q0 238 133 381.5t330 143.5q80 0 132.5 -29t142.5 -119l-498 -497q41 -68 101.5 -87.5t136.5 -19.5t142.5 35t119.5 74q-82 -125 -180.5 -187.5t-225.5 -62.5q-182 0 -258 116.5t-76 251.5zM254 467q0 -49 6.5 -93t22.5 -87q72 70 143 139q109 117 109 176 q0 72 -35 112t-92 40q-72 0 -113 -85t-41 -202zM379 983q41 76 84 152q108 151 184 151q45 0 45 -33q0 -74 -140 -172t-173 -98z" />
<glyph unicode="&#xea;" horiz-adv-x="847" d="M61 360q0 238 133 381.5t330 143.5q80 0 132.5 -29t142.5 -119l-498 -497q41 -68 101.5 -87.5t136.5 -19.5t142.5 35t119.5 74q-82 -125 -180.5 -187.5t-225.5 -62.5q-182 0 -258 116.5t-76 251.5zM147 1028q57 139 150.5 201.5t177.5 97.5q82 -33 173 -94.5t124 -204.5 q-78 45 -165 88t-138 43t-143.5 -43t-178.5 -88zM254 467q0 -49 6.5 -93t22.5 -87q72 70 143 139q109 117 109 176q0 72 -35 112t-92 40q-72 0 -113 -85t-41 -202z" />
<glyph unicode="&#xeb;" horiz-adv-x="847" d="M61 360q0 238 133 381.5t330 143.5q80 0 132.5 -29t142.5 -119l-498 -497q41 -68 101.5 -87.5t136.5 -19.5t142.5 35t119.5 74q-82 -125 -180.5 -187.5t-225.5 -62.5q-182 0 -258 116.5t-76 251.5zM254 467q0 -49 6.5 -93t22.5 -87q72 70 143 139q109 117 109 176 q0 72 -35 112t-92 40q-72 0 -113 -85t-41 -202zM274 1112q0 62 82 62q27 0 44.5 -26t17.5 -56q0 -39 -23.5 -50.5t-58.5 -11.5q-27 0 -44.5 25.5t-17.5 56.5zM549 1112q0 29 23.5 45.5t56.5 16.5q29 0 46 -25t17 -57q0 -39 -23.5 -50.5t-58.5 -11.5q-29 0 -45 26.5t-16 55.5 z" />
<glyph unicode="&#xec;" horiz-adv-x="534" d="M27 713q10 39 83.5 106.5t139.5 67.5q63 0 89 -49.5t26 -116.5v-576q8 -57 43 -57q25 0 57.5 26.5t42.5 35.5q-49 -84 -99.5 -123t-113.5 -39q-53 0 -86 45t-33 106v604q0 39 -29 39q-39 0 -120 -69zM37 1225q0 33 43 32q72 0 182 -151l86 -152q-31 0 -171 98.5 t-140 172.5z" />
<glyph unicode="&#xed;" horiz-adv-x="534" d="M27 713q10 39 83.5 106.5t139.5 67.5q63 0 89 -49.5t26 -116.5v-576q8 -57 43 -57q25 0 57.5 26.5t42.5 35.5q-49 -84 -99.5 -123t-113.5 -39q-53 0 -86 45t-33 106v604q0 39 -29 39q-39 0 -120 -69zM150 983q41 76 83 152q109 151 185 151q45 0 45 -33 q0 -74 -140.5 -172t-172.5 -98z" />
<glyph unicode="&#xee;" horiz-adv-x="534" d="M-43 1028q57 139 150.5 201.5t177.5 97.5q82 -33 173 -94.5t124 -204.5q-78 45 -165 88t-138 43t-143.5 -43t-178.5 -88zM27 713q10 39 83.5 106.5t139.5 67.5q63 0 89 -49.5t26 -116.5v-576q8 -57 43 -57q25 0 57.5 26.5t42.5 35.5q-49 -84 -99.5 -123t-113.5 -39 q-53 0 -86 45t-33 106v604q0 39 -29 39q-39 0 -120 -69z" />
<glyph unicode="&#xef;" horiz-adv-x="534" d="M27 713q10 39 83.5 106.5t139.5 67.5q63 0 89 -49.5t26 -116.5v-576q8 -57 43 -57q25 0 57.5 26.5t42.5 35.5q-49 -84 -99.5 -123t-113.5 -39q-53 0 -86 45t-33 106v604q0 39 -29 39q-39 0 -120 -69zM51 1112q0 62 82 62q27 0 44.5 -26t17.5 -56q0 -39 -24 -50.5 t-58 -11.5q-27 0 -44.5 25.5t-17.5 56.5zM326 1112q0 29 23.5 45.5t56.5 16.5q29 0 46 -26t17 -56q0 -39 -23.5 -50.5t-58.5 -11.5q-20 0 -40.5 20.5t-20.5 61.5z" />
<glyph unicode="&#xf1;" horiz-adv-x="913" d="M-55 666q78 98 142.5 154.5t100.5 56.5q57 0 72.5 -62.5t15.5 -193.5v-76q80 125 169.5 228.5t187.5 103.5q76 0 100.5 -51.5t24.5 -153.5q0 -31 -1 -60.5t-1 -60.5q0 -59 -1 -126t-1 -161v-93t2 -42q0 -45 30 -45q41 0 113 68q-41 -78 -103.5 -121t-111.5 -43 q-55 0 -89 33.5t-34 103.5l2 461q0 47 -10 74.5t-57 27.5q-51 0 -135.5 -107.5t-84.5 -125.5v-349q-10 -43 -70.5 -80.5t-119.5 -37.5v700q0 33 -25 33q-31 0 -116 -55zM127 999q16 94 78.5 162t144.5 68q51 0 133 -45t135 -45q80 0 115 31.5t74 78.5q-18 -96 -76.5 -162.5 t-144.5 -66.5q-43 0 -133.5 45t-137.5 45q-68 0 -100.5 -24.5t-87.5 -86.5z" />
<glyph unicode="&#xf2;" d="M53 416q0 184 135.5 327.5t311.5 143.5q168 0 263 -121t95 -299q0 -188 -139 -333.5t-311 -145.5q-162 0 -258.5 121.5t-96.5 306.5zM225 1225q0 33 45 32q72 0 183 -151l86 -152q-31 0 -172.5 99.5t-141.5 171.5zM233 537q0 -168 44.5 -309.5t197.5 -141.5 q88 0 143.5 73.5t55.5 188.5q0 166 -55.5 304.5t-188.5 138.5q-90 0 -143.5 -71.5t-53.5 -182.5z" />
<glyph unicode="&#xf3;" d="M53 416q0 184 135.5 327.5t311.5 143.5q168 0 263 -121t95 -299q0 -188 -139 -333.5t-311 -145.5q-162 0 -258.5 121.5t-96.5 306.5zM233 537q0 -168 44.5 -309.5t197.5 -141.5q88 0 143.5 73.5t55.5 188.5q0 166 -55.5 304.5t-188.5 138.5q-90 0 -143.5 -71.5 t-53.5 -182.5zM346 983q41 76 84 152q108 151 184 151q45 0 45 -33q0 -74 -140 -172t-173 -98z" />
<glyph unicode="&#xf4;" d="M53 416q0 184 135.5 327.5t311.5 143.5q168 0 263 -121t95 -299q0 -188 -139 -333.5t-311 -145.5q-162 0 -258.5 121.5t-96.5 306.5zM127 1028q57 139 150.5 201.5t177.5 97.5q84 -33 174 -94.5t123 -204.5q-78 45 -165 88t-138 43t-143.5 -43t-178.5 -88zM233 537 q0 -168 44.5 -309.5t197.5 -141.5q88 0 143.5 73.5t55.5 188.5q0 166 -55.5 304.5t-188.5 138.5q-90 0 -143.5 -71.5t-53.5 -182.5z" />
<glyph unicode="&#xf5;" d="M53 416q0 184 135.5 327.5t311.5 143.5q168 0 263 -121t95 -299q0 -188 -139 -333.5t-311 -145.5q-162 0 -258.5 121.5t-96.5 306.5zM127 999q16 94 78.5 162t144.5 68q51 0 133 -45t135 -45q80 0 115 31.5t74 78.5q-18 -96 -76.5 -162.5t-144.5 -66.5q-43 0 -133.5 45 t-137.5 45q-68 0 -100.5 -24.5t-87.5 -86.5zM233 537q0 -168 44.5 -309.5t197.5 -141.5q88 0 143.5 73.5t55.5 188.5q0 166 -55.5 304.5t-188.5 138.5q-90 0 -143.5 -71.5t-53.5 -182.5z" />
<glyph unicode="&#xf6;" d="M53 416q0 184 135.5 327.5t311.5 143.5q168 0 263 -121t95 -299q0 -188 -139 -333.5t-311 -145.5q-162 0 -258.5 121.5t-96.5 306.5zM233 537q0 -168 44.5 -309.5t197.5 -141.5q88 0 143.5 73.5t55.5 188.5q0 166 -55.5 304.5t-188.5 138.5q-90 0 -143.5 -71.5 t-53.5 -182.5zM266 1112q0 27 21.5 44.5t60.5 17.5q29 0 46.5 -26t17.5 -56q0 -39 -23.5 -50.5t-58.5 -11.5q-29 0 -46.5 24.5t-17.5 57.5zM543 1112q0 29 23.5 45.5t56.5 16.5q27 0 44 -26t17 -56q0 -39 -22.5 -50.5t-59.5 -11.5q-18 0 -38.5 21.5t-20.5 60.5z" />
<glyph unicode="&#xf7;" horiz-adv-x="1124" d="M88 414v139h948v-139h-948zM446 207q0 49 36 83t81 34q49 0 82 -33t33 -84q0 -49 -35 -82q-31 -35 -80 -35t-83 36t-34 81zM446 758q0 49 36 82.5t81 33.5q49 0 82 -34.5t33 -81.5q0 -49 -35 -82q-31 -35 -80 -35t-83 34t-34 83z" />
<glyph unicode="&#xf8;" d="M53 416q0 184 135.5 327.5t311.5 143.5q70 0 127 -23l51 101h102l-73 -144q72 -53 111.5 -147t39.5 -207q0 -188 -139 -333.5t-311 -145.5q-59 0 -117 20l-62 -123h-102l82 166q-156 121 -156 365zM233 537q0 -125 12.5 -198t45.5 -132l270 528q-51 55 -131 56 q-90 0 -143.5 -72t-53.5 -182zM352 127q25 -18 56.5 -29.5t66.5 -11.5q88 0 143.5 73.5t55.5 188.5q0 72 -13.5 152.5t-42.5 146.5z" />
<glyph unicode="&#xf9;" horiz-adv-x="1003" d="M-27 741q47 76 103 112t117 36q68 0 84 -51.5t20 -104.5v-385v-55q0 -63 15.5 -97t70.5 -34q51 0 127 78.5t76 140.5v352q0 63 54 109.5t134 46.5v-729q6 -8 15.5 -16.5t31.5 -8.5q29 0 69 21.5t97 76.5q-45 -72 -132 -158.5t-165 -86.5q-57 0 -80.5 33.5t-23.5 99.5v90 q-96 -102 -176 -162.5t-168 -60.5q-74 0 -103.5 69.5t-29.5 169.5v475q0 39 -8.5 57.5t-34.5 18.5q-33 0 -93 -37zM180 1225q0 33 45 32q72 0 183 -151l86 -152q-31 0 -172.5 99.5t-141.5 171.5z" />
<glyph unicode="&#xfa;" horiz-adv-x="1003" d="M-27 741q47 76 103 112t117 36q68 0 84 -51.5t20 -104.5v-385v-55q0 -63 15.5 -97t70.5 -34q51 0 127 78.5t76 140.5v352q0 63 54 109.5t134 46.5v-729q6 -8 15.5 -16.5t31.5 -8.5q29 0 69 21.5t97 76.5q-45 -72 -132 -158.5t-165 -86.5q-57 0 -80.5 33.5t-23.5 99.5v90 q-96 -102 -176 -162.5t-168 -60.5q-74 0 -103.5 69.5t-29.5 169.5v475q0 39 -8.5 57.5t-34.5 18.5q-33 0 -93 -37zM391 983q41 76 84 152q108 151 184 151q45 0 46 -33q0 -74 -140.5 -172t-173.5 -98z" />
<glyph unicode="&#xfb;" horiz-adv-x="1003" d="M-27 741q47 76 103 112t117 36q68 0 84 -51.5t20 -104.5v-385v-55q0 -63 15.5 -97t70.5 -34q51 0 127 78.5t76 140.5v352q0 63 54 109.5t134 46.5v-729q6 -8 15.5 -16.5t31.5 -8.5q29 0 69 21.5t97 76.5q-45 -72 -132 -158.5t-165 -86.5q-57 0 -80.5 33.5t-23.5 99.5v90 q-96 -102 -176 -162.5t-168 -60.5q-74 0 -103.5 69.5t-29.5 169.5v475q0 39 -8.5 57.5t-34.5 18.5q-33 0 -93 -37zM94 1028q57 139 150.5 201.5t177.5 97.5q84 -33 174 -94.5t123 -204.5q-78 45 -165 88t-138 43t-143.5 -43t-178.5 -88z" />
<glyph unicode="&#xfc;" horiz-adv-x="1003" d="M-27 741q47 76 103 112t117 36q68 0 84 -51.5t20 -104.5v-385v-55q0 -63 15.5 -97t70.5 -34q51 0 127 78.5t76 140.5v352q0 63 54 109.5t134 46.5v-729q6 -8 15.5 -16.5t31.5 -8.5q29 0 69 21.5t97 76.5q-45 -72 -132 -158.5t-165 -86.5q-57 0 -80.5 33.5t-23.5 99.5v90 q-96 -102 -176 -162.5t-168 -60.5q-74 0 -103.5 69.5t-29.5 169.5v475q0 39 -8.5 57.5t-34.5 18.5q-33 0 -93 -37zM254 1106q0 23 21.5 42t60.5 19q27 0 44 -25.5t17 -56.5q0 -39 -22.5 -50t-59.5 -11q-27 0 -44 25.5t-17 56.5zM528 1106q0 27 23.5 44t58.5 17 q27 0 44.5 -25.5t17.5 -56.5q0 -39 -23.5 -50t-58.5 -11q-20 0 -41 20.5t-21 61.5z" />
<glyph unicode="&#xff;" horiz-adv-x="956" d="M-37 614q59 92 146.5 183.5t156.5 91.5q94 0 230.5 -290t187.5 -359q33 59 63.5 131.5t30.5 148.5q0 84 -42 142.5t-124 95.5q31 55 68 109.5t94 54.5q31 0 98.5 -86t67.5 -185q0 -49 -147.5 -311t-221 -412.5t-73.5 -271.5q0 -100 58 -180t155 -80q80 0 124 42t89 148 q0 -158 -93.5 -215t-216.5 -57q-160 0 -233.5 52t-73.5 188q0 109 64.5 212t181.5 257q-37 82 -101.5 225t-142.5 284.5t-103.5 147.5t-45.5 6q-47 0 -98.5 -21.5t-98.5 -50.5zM281 1112q-1 62 81 62q27 0 44.5 -26t17.5 -56q0 -39 -23.5 -50.5t-58.5 -11.5q-27 0 -44 25.5 t-17 56.5zM555 1112q0 29 23.5 45.5t56.5 16.5q29 0 46 -26t17 -56q0 -39 -23.5 -50.5t-58.5 -11.5q-20 0 -40.5 20.5t-20.5 61.5z" />
<glyph unicode="&#x152;" horiz-adv-x="2359" d="M61 516q0 162 58.5 349.5t230.5 338t481 150.5q137 -6 297 -13.5t285 -7.5l33 31v-31h729q0 -80 68.5 -197.5t89.5 -189.5q-133 119 -265 238q-145 86 -313 86l-248 2q-66 0 -65 -72v-571q104 127 202.5 204.5t241.5 77.5q78 0 123 -45t45 -118q0 -70 -45 -146q6 53 6 88 q0 84 -29.5 109.5t-82.5 25.5q-111 0 -286 -181t-175 -451q0 -168 55 -203t236 -35q414 0 598 367q-10 -94 -61.5 -209t-94.5 -209h-942q-98 -45 -195.5 -71t-222.5 -26q-369 0 -561.5 188.5t-192.5 520.5zM317 731q0 -401 136.5 -630.5t451.5 -229.5q129 0 204 33t75 76 v1054q0 98 -132 179t-294 81q-205 0 -323 -129t-118 -434z" />
<glyph unicode="&#x153;" horiz-adv-x="1458" d="M53 416q0 184 135.5 327.5t311.5 143.5q98 0 171.5 -42t121.5 -120q135 160 342 160q80 0 132 -29t142 -119l-498 -497q41 -68 101.5 -87.5t136.5 -19.5t142.5 35t119.5 74q-162 -250 -407 -250q-102 0 -170 40.5t-109 110.5q-63 -72 -147 -113.5t-170 -41.5 q-162 0 -258.5 121.5t-96.5 306.5zM233 537q0 -168 44.5 -309.5t197.5 -141.5q88 0 143.5 73.5t55.5 188.5q0 166 -55.5 304.5t-188.5 138.5q-90 0 -143.5 -71.5t-53.5 -182.5zM862 467q0 -94 29 -180q72 70 143 139q109 117 109 176q0 53 -24.5 102.5t-100.5 49.5 q-74 0 -115 -84t-41 -203z" />
<glyph unicode="&#x178;" horiz-adv-x="686" d="M-127 1047h522q-39 -12 -70.5 -32t-31.5 -50q61 -72 156.5 -197t111.5 -215q41 199 181.5 372t365.5 173q147 0 234.5 -108.5t87.5 -262.5q-57 137 -118 204.5t-218 67.5q-252 0 -367 -212t-115 -377v-316q0 -55 45 -110.5t134 -79.5h-480q76 31 114 68.5t38 109.5v356 q0 55 -65.5 181t-197.5 249t-327 179zM373 1210q0 62 82 62q27 0 44 -25.5t17 -56.5q0 -39 -23.5 -50.5t-58.5 -11.5q-27 0 -44 26t-17 56zM647 1210q0 29 23.5 45.5t56.5 16.5q29 0 46.5 -24.5t17.5 -57.5q0 -39 -24 -50.5t-58 -11.5q-29 0 -45.5 27t-16.5 55z" />
<glyph unicode="&#x2000;" horiz-adv-x="698" />
<glyph unicode="&#x2001;" horiz-adv-x="1397" />
<glyph unicode="&#x2002;" horiz-adv-x="698" />
<glyph unicode="&#x2003;" horiz-adv-x="1397" />
<glyph unicode="&#x2004;" horiz-adv-x="465" />
<glyph unicode="&#x2005;" horiz-adv-x="349" />
<glyph unicode="&#x2006;" horiz-adv-x="232" />
<glyph unicode="&#x2007;" horiz-adv-x="232" />
<glyph unicode="&#x2008;" horiz-adv-x="174" />
<glyph unicode="&#x2009;" horiz-adv-x="279" />
<glyph unicode="&#x200a;" horiz-adv-x="77" />
<glyph unicode="&#x2010;" horiz-adv-x="1200" d="M162 360q51 156 180 195t358.5 46t311.5 50q-80 -166 -203 -200.5t-340 -37t-307 -53.5z" />
<glyph unicode="&#x2011;" horiz-adv-x="1200" d="M162 360q51 156 180 195t358.5 46t311.5 50q-80 -166 -203 -200.5t-340 -37t-307 -53.5z" />
<glyph unicode="&#x2012;" horiz-adv-x="1200" d="M162 360q51 156 180 195t358.5 46t311.5 50q-80 -166 -203 -200.5t-340 -37t-307 -53.5z" />
<glyph unicode="&#x2013;" horiz-adv-x="825" d="M84 362q70 156 141.5 198t182.5 42q25 0 46 -1t40 -1q70 0 122 10.5t119 42.5q-70 -160 -145.5 -198.5t-208.5 -38.5q-106 0 -162.5 -7.5t-134.5 -46.5z" />
<glyph unicode="&#x2014;" horiz-adv-x="1421" d="M145 360q27 82 138.5 161t222.5 79h569q68 0 111 13.5t100 37.5q-61 -129 -191 -184t-243 -55h-504q-70 0 -109.5 -11.5t-93.5 -40.5z" />
<glyph unicode="&#x2018;" horiz-adv-x="288" d="M2 1032q0 72 44 134.5t124 107.5q-39 -55 -39 -111q0 -63 33 -98t102 -86q-16 -39 -46.5 -84t-108.5 -72q-55 49 -82 103.5t-27 105.5z" />
<glyph unicode="&#x2019;" horiz-adv-x="256" d="M-25 1204q16 41 47 85t107 69q55 -49 82 -103.5t27 -105.5q0 -70 -45.5 -133.5t-122.5 -108.5q39 55 39 111q0 61 -27 90t-107 96z" />
<glyph unicode="&#x201c;" horiz-adv-x="610" d="M2 1032q0 72 44 134.5t124 107.5q-39 -55 -39 -111q0 -63 33 -98t102 -86q-16 -39 -46.5 -84t-108.5 -72q-55 49 -82 103.5t-27 105.5zM340 1032q0 72 44 134.5t124 107.5q-39 -55 -39 -111q0 -61 30.5 -94t102.5 -90q-18 -55 -51.5 -94t-101.5 -62q-55 49 -82 103.5 t-27 105.5z" />
<glyph unicode="&#x201d;" horiz-adv-x="610" d="M10 1135q16 41 47 84.5t107 68.5q55 -49 81.5 -103.5t26.5 -105.5q0 -72 -44 -133t-124 -108q39 55 39 110q0 61 -26.5 90t-106.5 97zM348 1135q16 41 47 84.5t109 68.5q55 -49 81.5 -103.5t26.5 -105.5q0 -72 -44 -133t-124 -108q39 55 39 110q0 63 -30.5 95t-104.5 92z " />
<glyph unicode="&#x2022;" horiz-adv-x="835" d="M76 551q0 143 97 234.5t247 91.5q145 0 234 -99.5t89 -242.5q0 -145 -96 -235.5t-246 -90.5q-106 0 -215.5 78t-109.5 264z" />
<glyph unicode="&#x2026;" horiz-adv-x="1560" d="M111 14q12 25 71.5 103t100.5 78q12 0 69.5 -53.5t116.5 -100.5l-170 -172q-4 4 -84 67.5t-104 77.5zM588 14q20 35 74.5 108t97.5 73q14 0 67.5 -52.5t118.5 -101.5l-170 -172q-70 55 -119 94t-69 51zM1067 14q12 25 71.5 103t100.5 78q12 0 68.5 -52.5t117.5 -101.5 l-170 -172q-35 23 -89 72t-99 73z" />
<glyph unicode="&#x202f;" horiz-adv-x="279" />
<glyph unicode="&#x2039;" horiz-adv-x="368" d="M55 590l168 346l84 -57l-84 -289l84 -320l-84 -63z" />
<glyph unicode="&#x203a;" horiz-adv-x="368" d="M55 270l86 320l-86 289l86 57l166 -346l-166 -383z" />
<glyph unicode="&#x205f;" horiz-adv-x="349" />
<glyph unicode="&#x2122;" horiz-adv-x="1441" d="M94 1165v174h506v-174h-47q0 66 -21.5 89.5t-76.5 23.5h-56q0 -225 1 -379t12 -164q14 -8 57 -8h12v-51h-276v51h12q41 0 57 8q10 8 12.5 92t2.5 451h-51q-53 0 -75 -23.5t-22 -89.5h-47zM641 676v51h18q8 0 21.5 1t19 15.5t7.5 38t2 33.5v418q0 41 -4.5 50t-32.5 9h-21 v47h195l145 -421l139 421h197v-47h-27q-33 0 -35.5 -14t-2.5 -45v-424q0 -55 8 -66.5t57 -15.5v-51h-244v51q45 0 56.5 13.5t11.5 66.5v430l-184 -561h-17l-192 561v-459q0 -33 16.5 -42t46.5 -9v-51h-180z" />
<glyph unicode="&#x25fc;" horiz-adv-x="890" d="M0 0v891h891v-891h-891z" />
</font>
</defs>
</svg>
